<svg width="85" height="86" viewBox="0 0 85 86" fill="none" xmlns="http://www.w3.org/2000/svg">
<path d="M42.5 83C64.5914 83 82.5 65.0914 82.5 43C82.5 20.9086 64.5914 3 42.5 3C20.4086 3 2.5 20.9086 2.5 43C2.5 65.0914 20.4086 83 42.5 83Z" stroke="#E4E4E4" stroke-width="5"/>
<path d="M60.832 33.668C57.74 27.388 50.672 23 42.452 23C32.052 23 23.5 30.016 22.5 39" stroke="#E4E4E4" stroke-width="5" stroke-linecap="round" stroke-linejoin="round"/>
<path d="M52.476 33.888H60.1C60.4151 33.888 60.7272 33.8259 61.0184 33.7053C61.3096 33.5847 61.5742 33.4079 61.797 33.1851C62.0199 32.9622 62.1967 32.6976 62.3173 32.4064C62.4379 32.1153 62.5 31.8032 62.5 31.488V25M24.168 49.668C27.264 57.516 34.328 63 42.548 63C52.948 63 61.492 54.228 62.5 43" stroke="#E4E4E4" stroke-width="5" stroke-linecap="round" stroke-linejoin="round"/>
<path d="M32.524 49.4878H24.9C24.2635 49.4878 23.653 49.7407 23.2029 50.1907C22.7529 50.6408 22.5 51.2513 22.5 51.8878V60.5998" stroke="#E4E4E4" stroke-width="5" stroke-linecap="round" stroke-linejoin="round"/>
</svg>
