<svg width="60" height="86" viewBox="0 0 60 86" fill="none" xmlns="http://www.w3.org/2000/svg">
<path d="M30.0063 2.76636H16.6729C13.1367 2.76636 9.74533 4.17112 7.24484 6.6716C4.74436 9.17209 3.3396 12.5635 3.3396 16.0997C3.3396 19.6359 4.74436 23.0273 7.24484 25.5278C9.74533 28.0283 13.1367 29.433 16.6729 29.433H30.0063M30.0063 2.76636V29.433M30.0063 2.76636H43.3396C46.8758 2.76636 50.2672 4.17112 52.7677 6.6716C55.2682 9.17209 56.6729 12.5635 56.6729 16.0997C56.6729 19.6359 55.2682 23.0273 52.7677 25.5278C50.2672 28.0283 46.8758 29.433 43.3396 29.433H30.0063" stroke="#E4E4E4" stroke-width="5" stroke-linecap="round" stroke-linejoin="round"/>
<path d="M16.6729 56.0998C13.1367 56.0998 9.74533 57.5045 7.24484 60.005C4.74436 62.5055 3.3396 65.8969 3.3396 69.4331C3.3396 72.9693 4.74436 76.3607 7.24484 78.8612C9.74533 81.3617 13.1367 82.7664 16.6729 82.7664C20.2092 82.7664 23.6005 81.3617 26.101 78.8612C28.6015 76.3607 30.0063 72.9693 30.0063 69.4331V56.0998M16.6729 56.0998H30.0063M16.6729 56.0998C13.1367 56.0998 9.74533 54.695 7.24484 52.1945C4.74436 49.694 3.3396 46.3027 3.3396 42.7664C3.3396 39.2302 4.74436 35.8388 7.24484 33.3383C9.74533 30.8379 13.1367 29.4331 16.6729 29.4331H30.0063V56.0998M30.0063 42.7664C30.0063 39.2302 31.411 35.8388 33.9115 33.3383C36.412 30.8379 39.8034 29.4331 43.3396 29.4331C46.8758 29.4331 50.2672 30.8379 52.7677 33.3383C55.2682 35.8388 56.6729 39.2302 56.6729 42.7664C56.6729 46.3027 55.2682 49.694 52.7677 52.1945C50.2672 54.695 46.8758 56.0998 43.3396 56.0998C39.8034 56.0998 36.412 54.695 33.9115 52.1945C31.411 49.694 30.0063 46.3027 30.0063 42.7664Z" stroke="#E4E4E4" stroke-width="5" stroke-linecap="round" stroke-linejoin="round"/>
</svg>
