<svg width="67" height="96" viewBox="0 0 67 96" fill="none" xmlns="http://www.w3.org/2000/svg">
<path d="M0 17.961C0 8.0415 8.0415 0 17.9612 0H48.7802C58.6999 0 66.7414 8.0415 66.7414 17.961C66.7414 24.2423 63.5171 29.7705 58.6333 32.9807C63.5171 36.1911 66.7414 41.7191 66.7414 48.0004C66.7414 57.9201 58.6999 65.9616 48.7802 65.9616H48.3902C43.7398 65.9616 39.5021 64.1942 36.3124 61.2945V77.8438C36.3124 87.8957 28.0607 96 18.0579 96C8.163 96 0 87.9831 0 78.0388C0 71.7579 3.22406 66.2301 8.1075 63.0197C3.22369 59.8093 0 54.2813 0 48.0004C0 41.7191 3.22425 36.1911 8.10787 32.9807C3.22444 29.7705 0 24.2423 0 17.961ZM30.429 35.9226H17.9612C11.2907 35.9226 5.88337 41.3301 5.88337 48.0004C5.88337 54.645 11.2491 60.0364 17.8839 60.078L17.9612 60.0778H30.429V35.9226ZM36.3124 48.0004C36.3124 54.6707 41.7197 60.0782 48.3902 60.0782H48.7802C55.4507 60.0782 60.858 54.6707 60.858 48.0004C60.858 41.3301 55.4507 35.9226 48.7802 35.9226H48.3902C41.7197 35.9226 36.3124 41.3301 36.3124 48.0004ZM17.9612 65.9616L17.8839 65.9614C11.2491 66.0028 5.88337 71.3942 5.88337 78.0388C5.88337 84.6848 11.3631 90.1166 18.0579 90.1166C24.8608 90.1166 30.429 84.5974 30.429 77.8438V65.9616H17.9612ZM17.9612 5.88338C11.2907 5.88338 5.88337 11.2909 5.88337 17.961C5.88337 24.6315 11.2909 30.0388 17.9612 30.0388H30.429V5.88319L17.9612 5.88338ZM36.3124 30.0388H48.7802C55.4507 30.0388 60.858 24.6315 60.858 17.961C60.858 11.2907 55.4507 5.88338 48.7802 5.88338H36.3124V30.0388Z" fill="#E4E4E4"/>
</svg>
