<svg width="40" height="30" viewBox="0 0 40 30" fill="none" xmlns="http://www.w3.org/2000/svg">
<path d="M39.7167 15.5721C39.5861 15.3347 39.4109 15.1266 39.2014 14.9599C38.9918 14.7932 38.7521 14.6714 38.4963 14.6014C37.0165 14.2138 35.4798 14.1131 33.9644 14.3045C34.909 10.4892 34.3746 7.48454 33.8351 5.77065C33.6767 5.25832 33.3388 4.82527 32.8875 4.55603C32.4361 4.28679 31.9037 4.2007 31.3941 4.31457C29.4628 4.76325 27.643 5.62116 26.0503 6.83383C24.9987 4.31463 23.3438 2.11228 21.2408 0.43344C20.8832 0.152278 20.4459 0 19.9962 0C19.5465 0 19.1093 0.152278 18.7516 0.43344C16.6487 2.11228 14.9938 4.31463 13.9422 6.83383C12.3493 5.62147 10.5296 4.7636 8.59835 4.31457C8.08877 4.2007 7.55635 4.28679 7.10501 4.55603C6.65367 4.82527 6.31582 5.25832 6.15742 5.77065C5.61786 7.49165 5.08348 10.4963 6.02813 14.3045C4.5144 14.1138 2.9795 14.2145 1.50138 14.6014C1.24557 14.6714 1.00586 14.7932 0.796294 14.9599C0.586727 15.1266 0.411514 15.3347 0.280917 15.5721C0.142443 15.8174 0.052821 16.0888 0.017301 16.3702C-0.018219 16.6517 0.00107699 16.9377 0.0740588 17.2113C0.632576 19.3448 2.3495 23.4002 7.57612 26.6199C12.8027 29.8397 17.4933 29.8575 20.0014 29.8575C22.5096 29.8575 27.1742 29.8575 32.425 26.6199C37.6757 23.3824 39.3685 19.343 39.927 17.2113C39.9995 16.9374 40.0182 16.6514 39.9821 16.3699C39.946 16.0884 39.8558 15.8172 39.7167 15.5721ZM31.6889 5.69776C31.8658 5.65998 32.0499 5.69173 32.2052 5.7868C32.3606 5.88186 32.4758 6.03336 32.5284 6.21157C33.2179 8.43393 33.9075 13.0298 30.6719 18.8346C28.8705 22.0685 26.3433 24.5594 24.1024 26.2021C25.8624 23.8126 27.5862 20.1217 27.5862 14.7792C27.6045 12.5437 27.2619 10.3206 26.5726 8.20102C28.0786 6.98832 29.8256 6.13355 31.6889 5.69776ZM7.47442 6.21157C7.52837 6.03478 7.64428 5.88508 7.79952 5.79172C7.95475 5.69835 8.13816 5.66802 8.31392 5.70665C10.1765 6.13979 11.9235 6.9915 13.4302 8.20102C12.7409 10.3206 12.3984 12.5437 12.4166 14.7792C12.4166 20.1217 14.1404 23.8144 15.9004 26.1986C13.6595 24.5558 11.1324 22.065 9.33097 18.831C6.09364 13.0209 6.77799 8.42504 7.47442 6.21157ZM8.28806 25.4127C3.4786 22.449 1.90993 18.7777 1.41002 16.8522C1.38458 16.7594 1.37773 16.6622 1.38988 16.5665C1.40203 16.4708 1.43293 16.3787 1.4807 16.2957C1.52091 16.2207 1.57537 16.1548 1.64083 16.102C1.70628 16.0491 1.78139 16.0104 1.86166 15.9882C3.36875 15.5981 4.93829 15.5375 6.46943 15.8104C6.91009 17.1059 7.4676 18.3559 8.13464 19.5439C10.4239 23.6509 13.7646 26.5968 16.4555 28.2751C13.563 27.9395 10.776 26.9585 8.28806 25.4003V25.4127ZM20.01 28.3178C18.8865 27.5111 17.8929 26.5272 17.0657 25.4021C14.8937 22.4935 13.7957 18.9235 13.7957 14.7792C13.7957 6.91206 17.8449 2.91181 19.586 1.55884C19.7056 1.46567 19.8515 1.41527 20.0014 1.41527C20.1513 1.41527 20.2972 1.46567 20.4169 1.55884C22.1579 2.91181 26.2072 6.91206 26.2072 14.7792C26.2072 18.9235 25.1091 22.4935 22.9457 25.3896C22.1185 26.5147 21.125 27.4986 20.0014 28.3054L20.01 28.3178ZM38.6014 16.8522C38.0981 18.7777 36.5328 22.449 31.7234 25.4127C29.2352 26.9697 26.4482 27.9495 23.5559 28.284C26.2468 26.6057 29.5893 23.6615 31.8768 19.5528C32.5438 18.3647 33.1014 17.1147 33.542 15.8193C35.0731 15.5455 36.6428 15.6061 38.1498 15.9971C38.2301 16.0193 38.3052 16.058 38.3706 16.1109C38.4361 16.1637 38.4905 16.2296 38.5308 16.3046C38.6187 16.4677 38.641 16.6599 38.5928 16.8398L38.6014 16.8522Z" fill="#E4E4E4"/>
</svg>
