<svg width="88" height="86" viewBox="0 0 88 86" fill="none" xmlns="http://www.w3.org/2000/svg">
<path d="M29.8949 82.7664L44.2539 68.4074L58.6129 82.7664M44.2539 2.76636V10.9715M31.9462 43.792V51.9971M44.2539 35.5869V51.9971M56.5616 27.3817V51.9971M85.2796 13.433V65.9458C85.2796 66.2691 85.2159 66.5892 85.0922 66.8878C84.9685 67.1865 84.7872 67.4578 84.5586 67.6864C84.33 67.915 84.0587 68.0963 83.76 68.22C83.4614 68.3437 83.1413 68.4074 82.818 68.4074H5.68981C5.03697 68.4074 4.41087 68.148 3.94924 67.6864C3.48761 67.2248 3.22827 66.5987 3.22827 65.9458V13.433C3.22827 12.7802 3.48761 12.1541 3.94924 11.6925C4.41087 11.2308 5.03697 10.9715 5.68981 10.9715H82.818C83.4709 10.9715 84.097 11.2308 84.5586 11.6925C85.0202 12.1541 85.2796 12.7802 85.2796 13.433Z" stroke="#E4E4E4" stroke-width="5" stroke-linecap="round" stroke-linejoin="round"/>
</svg>
