<svg width="86" height="86" viewBox="0 0 86 86" fill="none" xmlns="http://www.w3.org/2000/svg">
<path d="M71.3082 45.6235V44.6692C71.3082 40.4635 67.8968 37.0521 63.6911 37.0521H57.0225C54.7492 37.0521 52.5691 37.9551 50.9616 39.5626C49.3542 41.17 48.4511 43.3502 48.4511 45.6235C48.4511 47.8968 49.3542 50.077 50.9616 51.6844C52.5691 53.2919 54.7492 54.1949 57.0225 54.1949H62.7368C65.0101 54.1949 67.1903 55.098 68.7977 56.7054C70.4052 58.3129 71.3082 60.4931 71.3082 62.7664C71.3082 65.0396 70.4052 67.2198 68.7977 68.8273C67.1903 70.4347 65.0101 71.3378 62.7368 71.3378H57.0225C54.7492 71.3378 52.5691 70.4347 50.9616 68.8273C49.3542 67.2198 48.4511 65.0396 48.4511 62.7664M37.0225 34.1949V62.7664C37.0225 65.0396 36.1195 67.2198 34.512 68.8273C32.9046 70.4347 30.7244 71.3378 28.4511 71.3378C26.1778 71.3378 23.9976 70.4347 22.3902 68.8273C20.7827 67.2198 19.8797 65.0396 19.8797 62.7664M7.73682 82.7664H77.7368C80.4982 82.7664 82.7368 80.5278 82.7368 77.7664V7.76636C82.7368 5.00493 80.4982 2.76636 77.7368 2.76636H7.73682C4.97539 2.76636 2.73682 5.00493 2.73682 7.76636V77.7664C2.73682 80.5278 4.97539 82.7664 7.73682 82.7664Z" stroke="#E4E4E4" stroke-width="5"/>
</svg>
