<svg width="101" height="101" viewBox="0 0 101 101" fill="none" xmlns="http://www.w3.org/2000/svg">
<path d="M83.7143 53.8214V52.7121C83.7143 47.8229 79.7485 43.8571 74.8594 43.8571H67.1071C64.4644 43.8571 61.93 44.9069 60.0613 46.7756C58.1927 48.6443 57.1429 51.1787 57.1429 53.8214C57.1429 56.4641 58.1927 58.9986 60.0613 60.8672C61.93 62.7359 64.4644 63.7857 67.1071 63.7857H73.75C76.3927 63.7857 78.9271 64.8355 80.7958 66.7042C82.6645 68.5729 83.7143 71.1073 83.7143 73.75C83.7143 76.3927 82.6645 78.9271 80.7958 80.7958C78.9271 82.6645 76.3927 83.7143 73.75 83.7143H67.1071C64.4644 83.7143 61.93 82.6645 60.0613 80.7958C58.1927 78.9271 57.1429 76.3927 57.1429 73.75M43.8571 40.5357V73.75C43.8571 76.3927 42.8073 78.9271 40.9387 80.7958C39.07 82.6645 36.5355 83.7143 33.8929 83.7143C31.2502 83.7143 28.7157 82.6645 26.847 80.7958C24.9784 78.9271 23.9286 76.3927 23.9286 73.75M4 4H97V97H4V4Z" stroke="#E4E4E4" stroke-width="6.64286"/>
</svg>
