<svg width="110" height="96" viewBox="0 0 110 96" fill="none" xmlns="http://www.w3.org/2000/svg">
<path d="M89.6095 31.1099C88.4524 30.7242 87.2953 30.36 86.1383 30.0171C86.3311 29.2243 86.5025 28.4315 86.6739 27.6387C89.3095 14.868 87.5739 4.60422 81.7242 1.21868C76.0888 -2.01686 66.8964 1.34725 57.5969 9.44682C56.6755 10.2396 55.7756 11.0753 54.9185 11.911C54.34 11.3539 53.74 10.7967 53.14 10.2611C43.3905 1.60438 33.6196 -2.03828 27.7699 1.36868C22.156 4.62565 20.4846 14.2894 22.8416 26.3745C23.0773 27.5744 23.3345 28.7529 23.6345 29.9529C22.2631 30.3386 20.9132 30.7671 19.649 31.2171C8.2067 35.1812 0 41.438 0 47.909C0 54.5944 8.74239 61.3012 20.6346 65.3724C21.5988 65.6938 22.5631 66.0152 23.5487 66.2938C23.2273 67.5794 22.9488 68.8436 22.6916 70.1507C20.4418 82.0429 22.1988 91.471 27.8128 94.7066C33.5982 98.0492 43.3263 94.6208 52.7972 86.3284C53.5471 85.6642 54.2971 84.9785 55.0471 84.25C55.9899 85.1713 56.9755 86.0499 57.9612 86.907C67.1321 94.7923 76.1959 97.9849 81.7885 94.7494C87.5739 91.4067 89.4595 81.2716 87.0168 68.9294C86.8239 67.9865 86.6097 67.0223 86.374 66.0367C87.0596 65.8438 87.7239 65.6295 88.3881 65.4153C100.752 61.3226 109.708 54.7015 109.708 47.909C109.708 41.4165 101.266 35.1169 89.6095 31.1099ZM60.6182 12.9181C68.5892 5.97557 76.0245 3.25429 79.41 5.20419C83.0313 7.28265 84.4241 15.6822 82.1528 26.7173C82.0028 27.4459 81.8528 28.153 81.6599 28.8601C76.903 27.7887 72.0819 27.0173 67.2393 26.5888C64.4537 22.6033 61.411 18.7892 58.1112 15.2108C58.9469 14.418 59.7611 13.668 60.6182 12.9181ZM35.8267 59.0299C36.9195 60.8941 38.0337 62.7583 39.2122 64.5796C35.8695 64.2153 32.5483 63.6796 29.2699 62.9725C30.2127 59.887 31.3912 56.6943 32.7625 53.4373C33.7482 55.3229 34.7553 57.1871 35.8267 59.0299ZM29.3341 33.2527C32.4197 32.567 35.6981 32.0099 39.1051 31.5813C37.9694 33.3598 36.8552 35.1812 35.8052 37.0239C34.7553 38.8452 33.7268 40.7094 32.7625 42.595C31.4126 39.4024 30.277 36.274 29.3341 33.2527ZM35.2053 48.0162C36.6195 45.0592 38.1622 42.1665 39.7907 39.3166C41.4192 36.4668 43.1763 33.7027 45.019 30.9814C48.2331 30.7457 51.5115 30.6171 54.8542 30.6171C58.1969 30.6171 61.4967 30.7457 64.6894 30.9814C66.5107 33.6812 68.2464 36.4454 69.8963 39.2738C71.5462 42.1022 73.089 44.9949 74.546 47.9305C73.1104 50.8875 71.5676 53.8016 69.9177 56.6729C68.2892 59.5227 66.5536 62.2868 64.7323 65.0296C61.5396 65.2653 58.2183 65.3724 54.8542 65.3724C51.4901 65.3724 48.2331 65.2653 45.0833 65.0724C43.2191 62.3511 41.4621 59.5656 39.8122 56.7157C38.1622 53.8659 36.6409 50.9732 35.2053 48.0162ZM73.9032 58.987C74.996 57.1014 76.0245 55.1944 77.0316 53.2659C78.403 56.3729 79.6029 59.5227 80.6528 62.7583C77.3316 63.5082 73.9675 64.0868 70.5819 64.4724C71.739 62.6725 72.8318 60.8298 73.9032 58.987ZM76.9887 42.595C75.9817 40.7094 74.9531 38.8238 73.8818 36.9811C72.8318 35.1597 71.739 33.3598 70.6034 31.5813C74.0532 32.0099 77.353 32.5884 80.4386 33.2955C79.4529 36.4668 78.2958 39.5523 76.9887 42.595ZM54.8971 18.4892C57.1469 20.9319 59.2683 23.5032 61.2396 26.1602C56.997 25.9674 52.7329 25.9674 48.4903 26.1602C50.5902 23.3961 52.7543 20.8248 54.8971 18.4892ZM30.0413 5.35418C33.6411 3.25429 41.6335 6.25413 50.0545 13.7109C50.5902 14.1823 51.1258 14.6965 51.683 15.2108C48.3617 18.7892 45.2976 22.6033 42.4906 26.5888C37.648 27.0173 32.8482 27.7673 28.0914 28.8172C27.8128 27.7244 27.5771 26.6102 27.3414 25.496C25.3272 15.1251 26.6557 7.30407 30.0413 5.35418ZM24.7915 61.8369C23.8916 61.5797 23.0131 61.3012 22.1345 61.0012C17.5705 59.5656 12.3851 57.2943 8.63525 54.3158C6.47108 52.8159 5.01402 50.5018 4.6069 47.909C4.6069 43.9878 11.378 38.9738 21.1489 35.5668C22.3702 35.1383 23.613 34.7526 24.8558 34.3883C26.3129 39.0381 28.0699 43.6021 30.1055 48.0162C28.0485 52.4945 26.27 57.1228 24.7915 61.8369ZM49.7759 82.8358C46.2404 86.0713 42.1477 88.6426 37.6908 90.3996C35.3124 91.5353 32.5697 91.6424 30.127 90.6782C26.72 88.7069 25.3058 81.143 27.2343 70.965C27.47 69.765 27.7271 68.5651 28.0271 67.3866C32.8268 68.4151 37.6694 69.1222 42.5763 69.4865C45.4047 73.4934 48.5117 77.3289 51.8329 80.9287C51.1473 81.593 50.4616 82.2358 49.7759 82.8358ZM55.0256 77.6289C52.84 75.2719 50.6544 72.6577 48.5331 69.8507C50.5902 69.9364 52.7115 69.9793 54.8542 69.9793C57.0612 69.9793 59.2254 69.9364 61.3681 69.8293C59.3968 72.5506 57.2755 75.1433 55.0256 77.6289ZM83.0313 84.0571C82.8384 86.6713 81.5528 89.114 79.4958 90.7639C76.0888 92.7352 68.8249 90.1639 60.9825 83.4357C60.0825 82.6643 59.1826 81.8287 58.2612 80.9716C61.5396 77.3503 64.5608 73.5148 67.3036 69.4865C72.2104 69.0793 77.0959 68.3294 81.9171 67.2366C82.1313 68.1151 82.3242 68.9936 82.4956 69.8507C83.5455 74.4791 83.717 79.3002 83.0313 84.0571ZM86.9311 61.0226C86.3311 61.2155 85.7311 61.4083 85.1097 61.5797C83.6098 56.9086 81.7671 52.3445 79.6458 47.909C81.7028 43.5379 83.4384 39.0381 84.8955 34.4312C86.0097 34.7526 87.0811 35.0954 88.1096 35.4383C98.0948 38.8667 105.102 43.9664 105.102 47.8662C105.102 52.066 97.6234 57.4871 86.9311 61.0226ZM54.8542 57.8085C60.2754 57.8085 64.668 53.4159 64.668 47.9948C64.668 42.5736 60.2754 38.181 54.8542 38.181C49.4331 38.181 45.0405 42.5736 45.0405 47.9948C45.0405 53.4159 49.4331 57.8085 54.8542 57.8085Z" fill="#E4E4E4"/>
</svg>
