<svg width="94" height="86" viewBox="0 0 94 86" fill="none" xmlns="http://www.w3.org/2000/svg">
<path d="M91.3396 42.7661C91.3396 53.2529 71.5052 61.7524 47.0382 61.7524C22.5712 61.7524 2.73682 53.2529 2.73682 42.7661C2.73682 32.2793 22.5712 23.7798 47.0382 23.7798C71.5052 23.7798 91.3396 32.2793 91.3396 42.7661Z" stroke="#E4E4E4" stroke-width="5"/>
<path d="M25.9381 81.7199C35.1591 86.7197 52.0759 73.3217 63.7335 51.8102C75.3847 30.2924 77.3593 8.80618 68.1383 3.81279C58.9173 -1.18694 42.0005 12.2111 30.3429 33.7225C18.6916 55.2404 16.7171 76.7265 25.9381 81.7199Z" stroke="#E4E4E4" stroke-width="5"/>
<path d="M68.1383 81.7199C58.9173 86.7197 42.0005 73.3217 30.3429 51.8102C18.6916 30.2924 16.7171 8.80618 25.9381 3.81279C35.1591 -1.18694 52.0759 12.2111 63.7335 33.7225C75.3847 55.2404 77.3593 76.7265 68.1383 81.7199Z" stroke="#E4E4E4" stroke-width="5"/>
<path d="M40.7094 42.7661C40.7094 44.4446 41.3762 46.0544 42.5631 47.2413C43.7499 48.4281 45.3597 49.0949 47.0382 49.0949C48.7167 49.0949 50.3264 48.4281 51.5133 47.2413C52.7002 46.0544 53.3669 44.4446 53.3669 42.7661C53.3669 41.0877 52.7002 39.4779 51.5133 38.291C50.3264 37.1042 48.7167 36.4374 47.0382 36.4374C45.3597 36.4374 43.7499 37.1042 42.5631 38.291C41.3762 39.4779 40.7094 41.0877 40.7094 42.7661Z" stroke="#E4E4E4" stroke-width="5"/>
</svg>
