<svg width="86" height="86" viewBox="0 0 86 86" fill="none" xmlns="http://www.w3.org/2000/svg">
<path d="M19.8583 49.2848L45.9117 23.2314C46.3545 22.7881 46.8804 22.4364 47.4592 22.1964C48.0381 21.9565 48.6586 21.833 49.2852 21.833C49.9118 21.833 50.5322 21.9565 51.1111 22.1964C51.6899 22.4364 52.2158 22.7881 52.6587 23.2314L62.7672 33.34C63.2105 33.7828 63.5622 34.3087 63.8022 34.8875C64.0422 35.4664 64.1657 36.0868 64.1657 36.7135C64.1657 37.3401 64.0422 37.9605 63.8022 38.5394C63.5622 39.1182 63.2105 39.6441 62.7672 40.087L53.5741 49.2848M19.8583 49.2848L9.5018 59.6413C9.05559 60.0871 8.70228 60.6171 8.46234 61.2005L3.56064 73.1019C1.13841 78.981 7.01758 84.8602 12.8968 82.4427L24.8029 77.5411C25.391 77.2963 25.9091 76.9498 26.3573 76.5016L53.5741 49.2848M19.8583 49.2848H53.5741M52.6539 3L62.7672 13.1133M62.7672 13.1133L69.5094 6.37111C69.9523 5.92778 70.4781 5.57608 71.057 5.33613C71.6358 5.09617 72.2563 4.97266 72.8829 4.97266C73.5095 4.97266 74.13 5.09617 74.7088 5.33613C75.2877 5.57608 75.8136 5.92778 76.2564 6.37111L79.6275 9.74222C80.5214 10.6364 81.0236 11.849 81.0236 13.1133C81.0236 14.3777 80.5214 15.5903 79.6275 16.4844L72.8853 23.2314M62.7672 13.1133L72.8853 23.2314M82.9986 33.3447L72.8853 23.2314" stroke="#E4E4E4" stroke-width="5" stroke-linecap="round" stroke-linejoin="round"/>
</svg>
