<svg width="81" height="86" viewBox="0 0 81 86" fill="none" xmlns="http://www.w3.org/2000/svg">
<path d="M33.7846 38.3225C38.4997 38.3225 43.0216 36.4495 46.3556 33.1155C49.6897 29.7814 51.5627 25.2595 51.5627 20.5444C51.5627 15.8294 49.6897 11.3075 46.3556 7.97344C43.0216 4.6394 38.4997 2.76636 33.7846 2.76636C29.0696 2.76636 24.5477 4.6394 21.2136 7.97344C17.8796 11.3075 16.0065 15.8294 16.0065 20.5444C16.0065 25.2595 17.8796 29.7814 21.2136 33.1155C24.5477 36.4495 29.0696 38.3225 33.7846 38.3225Z" stroke="#E4E4E4" stroke-width="5" stroke-linecap="round" stroke-linejoin="round"/>
<path d="M2.67297 73.8786V69.4341C2.67189 64.185 3.99892 59.021 6.53053 54.4227C9.06214 49.8245 12.716 45.9415 17.152 43.1353C21.588 40.3291 26.6619 38.6908 31.9014 38.3731C37.1409 38.0554 42.3756 39.0685 47.1182 41.3181M54.385 57.945L59.0028 48.1537C59.1278 47.8739 59.3311 47.6362 59.5882 47.4694C59.8453 47.3025 60.1453 47.2138 60.4518 47.2138C60.7582 47.2138 61.0582 47.3025 61.3153 47.4694C61.5724 47.6362 61.7757 47.8739 61.9007 48.1537L66.523 57.945L76.8476 59.5273C78.1721 59.7273 78.6965 61.434 77.7365 62.4118L70.2697 70.0252L72.0297 80.7854C72.2564 82.1677 70.8742 83.221 69.6875 82.5677L60.4518 77.4876L51.216 82.5677C50.0293 83.221 48.6471 82.1677 48.8738 80.7899L50.6338 70.0252L43.167 62.4118C42.207 61.434 42.7314 59.7273 44.0559 59.5228L54.385 57.945Z" stroke="#E4E4E4" stroke-width="5" stroke-linecap="round" stroke-linejoin="round"/>
</svg>
