<svg width="1549" height="177" viewBox="0 0 1549 177" fill="none" xmlns="http://www.w3.org/2000/svg">
<path d="M1.80533 44.781V43.781H0.805328V44.781H1.80533ZM1.80533 66.444H0.805328V67.444H1.80533V66.444ZM56.5853 66.444H57.5853V65.444H56.5853V66.444ZM56.5853 108.027V109.027H57.5853V108.027H56.5853ZM1.80533 108.027V107.027H0.805328V108.027H1.80533ZM1.80533 132.927H0.805328V133.927H1.80533V132.927ZM64.0553 132.927H65.0553V131.927H64.0553V132.927ZM64.0553 177V178H65.0553V177H64.0553ZM-53.4727 177H-54.4727V178H-53.4727V177ZM-53.4727 0.708V-0.292H-54.4727V0.708H-53.4727ZM64.0553 0.708H65.0553V-0.292H64.0553V0.708ZM64.0553 44.781V45.781H65.0553V44.781H64.0553ZM0.805328 44.781V66.444H2.80533V44.781H0.805328ZM1.80533 67.444H56.5853V65.444H1.80533V67.444ZM55.5853 66.444V108.027H57.5853V66.444H55.5853ZM56.5853 107.027H1.80533V109.027H56.5853V107.027ZM0.805328 108.027V132.927H2.80533V108.027H0.805328ZM1.80533 133.927H64.0553V131.927H1.80533V133.927ZM63.0553 132.927V177H65.0553V132.927H63.0553ZM64.0553 176H-53.4727V178H64.0553V176ZM-52.4727 177V0.708H-54.4727V177H-52.4727ZM-53.4727 1.708H64.0553V-0.292H-53.4727V1.708ZM63.0553 0.708V44.781H65.0553V0.708H63.0553ZM64.0553 43.781H1.80533V45.781H64.0553V43.781ZM313.719 177V178H314.719V177H313.719ZM258.441 177L257.606 177.551L257.903 178H258.441V177ZM199.926 88.356L200.76 87.8051L198.926 85.0259V88.356H199.926ZM199.926 177V178H200.926V177H199.926ZM144.648 177H143.648V178H144.648V177ZM144.648 0.708V-0.292H143.648V0.708H144.648ZM199.926 0.708L200.764 0.163498L200.469 -0.292H199.926V0.708ZM258.441 90.846L257.602 91.3905L259.441 94.223V90.846H258.441ZM258.441 0.708V-0.292H257.441V0.708H258.441ZM313.719 0.708H314.719V-0.292H313.719V0.708ZM313.719 176H258.441V178H313.719V176ZM259.275 176.449L200.76 87.8051L199.091 88.9069L257.606 177.551L259.275 176.449ZM198.926 88.356V177H200.926V88.356H198.926ZM199.926 176H144.648V178H199.926V176ZM145.648 177V0.708H143.648V177H145.648ZM144.648 1.708H199.926V-0.292H144.648V1.708ZM199.087 1.25249L257.602 91.3905L259.279 90.3015L200.764 0.163498L199.087 1.25249ZM259.441 90.846V0.708H257.441V90.846H259.441ZM258.441 1.708H313.719V-0.292H258.441V1.708ZM312.719 0.708V177H314.719V0.708H312.719ZM536.897 0.708H537.897V-0.292H536.897V0.708ZM536.897 44.532V45.532H537.897V44.532H536.897ZM490.085 44.532V43.532H489.085V44.532H490.085ZM490.085 177V178H491.085V177H490.085ZM434.807 177H433.807V178H434.807V177ZM434.807 44.532H435.807V43.532H434.807V44.532ZM388.493 44.532H387.493V45.532H388.493V44.532ZM388.493 0.708V-0.292H387.493V0.708H388.493ZM535.897 0.708V44.532H537.897V0.708H535.897ZM536.897 43.532H490.085V45.532H536.897V43.532ZM489.085 44.532V177H491.085V44.532H489.085ZM490.085 176H434.807V178H490.085V176ZM435.807 177V44.532H433.807V177H435.807ZM434.807 43.532H388.493V45.532H434.807V43.532ZM389.493 44.532V0.708H387.493V44.532H389.493ZM388.493 1.708H536.897V-0.292H388.493V1.708ZM700.293 177L699.407 177.464L699.688 178H700.293V177ZM667.176 113.754L668.062 113.29L667.781 112.754H667.176V113.754ZM666.927 113.754V112.754H665.927V113.754H666.927ZM666.927 177V178H667.927V177H666.927ZM611.649 177H610.649V178H611.649V177ZM611.649 0.708V-0.292H610.649V0.708H611.649ZM730.422 8.42699L729.969 9.31855L729.981 9.32434L730.422 8.42699ZM753.081 29.094L752.211 29.5866L752.216 29.5964L752.222 29.6061L753.081 29.094ZM750.84 89.85L750.031 89.2618L750.024 89.2716L750.84 89.85ZM722.703 109.521L722.395 108.57L721.227 108.948L721.834 110.015L722.703 109.521ZM761.049 177V178H762.768L761.919 176.506L761.049 177ZM666.927 76.902H665.927V77.902H666.927V76.902ZM700.791 73.416L701.45 74.1686L701.463 74.1573L701.475 74.1455L700.791 73.416ZM700.542 51.006L699.835 51.7131L699.846 51.7238L699.857 51.7342L700.542 51.006ZM666.927 47.022V46.022H665.927V47.022H666.927ZM701.179 176.536L668.062 113.29L666.29 114.218L699.407 177.464L701.179 176.536ZM667.176 112.754H666.927V114.754H667.176V112.754ZM665.927 113.754V177H667.927V113.754H665.927ZM666.927 176H611.649V178H666.927V176ZM612.649 177V0.708H610.649V177H612.649ZM611.649 1.708H693.819V-0.292H611.649V1.708ZM693.819 1.708C707.977 1.708 720.015 4.25978 729.969 9.31847L730.875 7.5355C720.577 2.30222 708.213 -0.292 693.819 -0.292V1.708ZM729.981 9.32434C739.948 14.2263 747.341 20.9836 752.211 29.5866L753.951 28.6014C748.861 19.6084 741.148 12.5877 730.863 7.52964L729.981 9.32434ZM752.222 29.6061C757.268 38.0694 759.8 47.6835 759.8 58.476H761.8C761.8 47.3565 759.187 37.3826 753.94 28.5819L752.222 29.6061ZM759.8 58.476C759.8 70.0606 756.541 80.3106 750.031 89.2618L751.649 90.4382C758.419 81.1294 761.8 70.4634 761.8 58.476H759.8ZM750.024 89.2716C743.693 98.1998 734.507 104.642 722.395 108.57L723.012 110.472C735.468 106.432 745.039 99.7602 751.656 90.4284L750.024 89.2716ZM721.834 110.015L760.18 177.494L761.919 176.506L723.573 109.027L721.834 110.015ZM761.049 176H700.293V178H761.049V176ZM666.927 77.902H688.839V75.902H666.927V77.902ZM688.839 77.902C694.275 77.902 698.538 76.7158 701.45 74.1686L700.133 72.6634C697.732 74.7642 694.027 75.902 688.839 75.902V77.902ZM701.475 74.1455C704.404 71.3992 705.775 67.2677 705.775 61.962H703.775C703.775 66.9483 702.49 70.4528 700.107 72.6865L701.475 74.1455ZM705.775 61.962C705.775 57.0977 704.29 53.16 701.227 50.2778L699.857 51.7342C702.438 54.164 703.775 57.5303 703.775 61.962H705.775ZM701.249 50.2989C698.345 47.3946 694.15 46.022 688.839 46.022V48.022C693.82 48.022 697.427 49.3054 699.835 51.7131L701.249 50.2989ZM688.839 46.022H666.927V48.022H688.839V46.022ZM665.927 47.022V76.902H667.927V47.022H665.927ZM893.498 44.781V43.781H892.498V44.781H893.498ZM893.498 66.444H892.498V67.444H893.498V66.444ZM948.278 66.444H949.278V65.444H948.278V66.444ZM948.278 108.027V109.027H949.278V108.027H948.278ZM893.498 108.027V107.027H892.498V108.027H893.498ZM893.498 132.927H892.498V133.927H893.498V132.927ZM955.748 132.927H956.748V131.927H955.748V132.927ZM955.748 177V178H956.748V177H955.748ZM838.22 177H837.22V178H838.22V177ZM838.22 0.708V-0.292H837.22V0.708H838.22ZM955.748 0.708H956.748V-0.292H955.748V0.708ZM955.748 44.781V45.781H956.748V44.781H955.748ZM892.498 44.781V66.444H894.498V44.781H892.498ZM893.498 67.444H948.278V65.444H893.498V67.444ZM947.278 66.444V108.027H949.278V66.444H947.278ZM948.278 107.027H893.498V109.027H948.278V107.027ZM892.498 108.027V132.927H894.498V108.027H892.498ZM893.498 133.927H955.748V131.927H893.498V133.927ZM954.748 132.927V177H956.748V132.927H954.748ZM955.748 176H838.22V178H955.748V176ZM839.22 177V0.708H837.22V177H839.22ZM838.22 1.708H955.748V-0.292H838.22V1.708ZM954.748 0.708V44.781H956.748V0.708H954.748ZM955.748 43.781H893.498V45.781H955.748V43.781ZM1193.69 44.781V43.781H1192.69V44.781H1193.69ZM1193.69 66.444H1192.69V67.444H1193.69V66.444ZM1248.47 66.444H1249.47V65.444H1248.47V66.444ZM1248.47 108.027V109.027H1249.47V108.027H1248.47ZM1193.69 108.027V107.027H1192.69V108.027H1193.69ZM1193.69 132.927H1192.69V133.927H1193.69V132.927ZM1255.94 132.927H1256.94V131.927H1255.94V132.927ZM1255.94 177V178H1256.94V177H1255.94ZM1138.41 177H1137.41V178H1138.41V177ZM1138.41 0.708V-0.292H1137.41V0.708H1138.41ZM1255.94 0.708H1256.94V-0.292H1255.94V0.708ZM1255.94 44.781V45.781H1256.94V44.781H1255.94ZM1192.69 44.781V66.444H1194.69V44.781H1192.69ZM1193.69 67.444H1248.47V65.444H1193.69V67.444ZM1247.47 66.444V108.027H1249.47V66.444H1247.47ZM1248.47 107.027H1193.69V109.027H1248.47V107.027ZM1192.69 108.027V132.927H1194.69V108.027H1192.69ZM1193.69 133.927H1255.94V131.927H1193.69V133.927ZM1254.94 132.927V177H1256.94V132.927H1254.94ZM1255.94 176H1138.41V178H1255.94V176ZM1139.41 177V0.708H1137.41V177H1139.41ZM1138.41 1.708H1255.94V-0.292H1138.41V1.708ZM1254.94 0.708V44.781H1256.94V0.708H1254.94ZM1255.94 43.781H1193.69V45.781H1255.94V43.781ZM1548.43 0.708H1549.43V-0.292H1548.43V0.708ZM1548.43 177V178H1549.43V177H1548.43ZM1493.4 177H1492.4V178H1493.4V177ZM1493.4 89.103H1494.4L1492.45 88.808L1493.4 89.103ZM1466.26 177V178H1467L1467.22 177.295L1466.26 177ZM1418.95 177L1417.99 177.295L1418.21 178H1418.95V177ZM1391.81 89.103L1392.76 88.808L1390.81 89.103H1391.81ZM1391.81 177V178H1392.81V177H1391.81ZM1336.53 177H1335.53V178H1336.53V177ZM1336.53 0.708V-0.292H1335.53V0.708H1336.53ZM1404.26 0.708L1405.2 0.363419L1404.96 -0.292H1404.26V0.708ZM1443.1 106.533L1442.16 106.878L1443.11 109.468L1444.04 106.87L1443.1 106.533ZM1480.95 0.708V-0.292H1480.25L1480.01 0.371239L1480.95 0.708ZM1547.43 0.708V177H1549.43V0.708H1547.43ZM1548.43 176H1493.4V178H1548.43V176ZM1494.4 177V89.103H1492.4V177H1494.4ZM1492.45 88.808L1465.3 176.705L1467.22 177.295L1494.36 89.398L1492.45 88.808ZM1466.26 176H1418.95V178H1466.26V176ZM1419.91 176.705L1392.76 88.808L1390.85 89.398L1417.99 177.295L1419.91 176.705ZM1390.81 89.103V177H1392.81V89.103H1390.81ZM1391.81 176H1336.53V178H1391.81V176ZM1337.53 177V0.708H1335.53V177H1337.53ZM1336.53 1.708H1404.26V-0.292H1336.53V1.708ZM1403.32 1.05258L1442.16 106.878L1444.04 106.188L1405.2 0.363419L1403.32 1.05258ZM1444.04 106.87L1481.89 1.04475L1480.01 0.371239L1442.16 106.196L1444.04 106.87ZM1480.95 1.708H1548.43V-0.292H1480.95V1.708Z" fill="#E0E0E0" fill-opacity="0.4"/>
</svg>
