<svg width="1505" height="182" viewBox="0 0 1505 182" fill="none" xmlns="http://www.w3.org/2000/svg">
<path d="M11.4229 45.042L10.5373 44.5776L10.5329 44.5861L11.4229 45.042ZM41.8009 13.419L42.2959 14.2879L42.3041 14.2832L41.8009 13.419ZM128.951 10.68L128.514 11.5794L128.521 11.583L128.529 11.5865L128.951 10.68ZM158.333 34.833L157.519 35.4143L157.525 35.4227L158.333 34.833ZM173.522 71.436V72.436H174.716L174.506 71.2602L173.522 71.436ZM115.256 71.436L114.346 71.8518L114.614 72.436H115.256V71.436ZM103.802 57.99L103.234 58.8132L103.25 58.8243L103.267 58.8348L103.802 57.99ZM64.9579 63.468L64.1716 62.8502L64.167 62.856L64.1625 62.862L64.9579 63.468ZM64.9579 119.742L64.1625 120.348L64.167 120.354L64.1716 120.36L64.9579 119.742ZM103.802 125.469L104.35 126.305L104.357 126.301L103.802 125.469ZM115.256 111.774V110.774H114.614L114.346 111.358L115.256 111.774ZM173.522 111.774L174.506 111.95L174.716 110.774H173.522V111.774ZM158.333 148.377L157.525 147.787L157.519 147.796L158.333 148.377ZM128.951 172.779L129.378 173.683L129.383 173.681L128.951 172.779ZM41.8009 170.04L41.2977 170.904L41.306 170.909L41.8009 170.04ZM11.4229 138.168L10.5328 138.624L10.5373 138.632L11.4229 138.168ZM1.96494 91.605C1.96494 74.3112 5.42276 58.9502 12.313 45.4979L10.5329 44.5861C3.4791 58.3578 -0.0350647 74.0388 -0.0350647 91.605H1.96494ZM12.3086 45.5064C19.3594 32.0605 29.3513 21.6614 42.2959 14.2879L41.306 12.5501C28.0225 20.1166 17.7624 30.7995 10.5373 44.5776L12.3086 45.5064ZM42.3041 14.2832C55.2411 6.75027 70.4993 2.96499 88.1149 2.96499V0.964989C70.2066 0.964989 54.5888 4.8157 41.2977 12.5548L42.3041 14.2832ZM88.1149 2.96499C103.258 2.96499 116.717 5.84481 128.514 11.5794L129.388 9.78063C117.281 3.89518 103.516 0.964989 88.1149 0.964989V2.96499ZM128.529 11.5865C140.497 17.1607 150.154 25.1024 157.519 35.4142L159.147 34.2518C151.572 23.6476 141.641 15.4873 129.373 9.7735L128.529 11.5865ZM157.525 35.4227C165.064 45.7468 170.072 57.8031 172.538 71.6118L174.506 71.2602C171.992 57.1808 166.874 44.8352 159.141 34.2433L157.525 35.4227ZM173.522 70.436H115.256V72.436H173.522V70.436ZM116.165 71.0202C113.436 65.0493 109.494 60.4116 104.337 57.1452L103.267 58.8348C108.069 61.8764 111.764 66.2026 114.346 71.8518L116.165 71.0202ZM104.37 57.1668C99.3754 53.7225 93.613 52.01 87.1189 52.01V54.01C93.2409 54.01 98.6004 55.6175 103.234 58.8132L104.37 57.1668ZM87.1189 52.01C77.5333 52.01 69.8496 55.6236 64.1716 62.8502L65.7443 64.0858C71.0223 57.3683 78.1126 54.01 87.1189 54.01V52.01ZM64.1625 62.862C58.6786 70.0595 55.9899 79.6749 55.9899 91.605H57.9899C57.9899 79.9631 60.6132 70.8205 65.7534 64.074L64.1625 62.862ZM55.9899 91.605C55.9899 103.535 58.6786 113.15 64.1625 120.348L65.7534 119.136C60.6132 112.39 57.9899 103.247 57.9899 91.605H55.9899ZM64.1716 120.36C69.8496 127.586 77.5333 131.2 87.1189 131.2V129.2C78.1126 129.2 71.0223 125.842 65.7443 119.124L64.1716 120.36ZM87.1189 131.2C93.6022 131.2 99.3575 129.576 104.35 126.305L103.254 124.633C98.6183 127.67 93.2517 129.2 87.1189 129.2V131.2ZM104.357 126.301C109.502 122.871 113.438 118.157 116.165 112.19L114.346 111.358C111.762 117.011 108.062 121.427 103.247 124.637L104.357 126.301ZM115.256 112.774H173.522V110.774H115.256V112.774ZM172.538 111.598C170.072 125.407 165.064 137.463 157.525 147.787L159.141 148.967C166.874 138.375 171.992 126.029 174.506 111.95L172.538 111.598ZM157.519 147.796C150.152 158.11 140.492 166.137 128.519 171.877L129.383 173.681C141.646 167.801 151.574 159.56 159.147 148.958L157.519 147.796ZM128.524 171.875C116.725 177.447 103.262 180.245 88.1149 180.245V182.245C103.512 182.245 117.273 179.399 129.378 173.683L128.524 171.875ZM88.1149 180.245C70.4956 180.245 55.2343 176.541 42.2959 169.171L41.306 170.909C54.5955 178.479 70.2103 182.245 88.1149 182.245V180.245ZM42.3041 169.176C29.3549 161.636 19.3604 151.151 12.3086 137.704L10.5373 138.632C17.7615 152.409 28.019 163.172 41.2978 170.904L42.3041 169.176ZM12.313 137.712C5.42276 124.26 1.96494 108.899 1.96494 91.605H-0.0350647C-0.0350647 109.171 3.4791 124.852 10.5329 138.624L12.313 137.712ZM293.273 170.04L292.781 170.91L292.785 170.913L293.273 170.04ZM260.405 137.67L259.544 138.178L260.405 137.67ZM293.273 12.423L293.758 13.2977L293.762 13.2957L293.273 12.423ZM384.656 12.423L384.164 13.2932L384.172 13.2976L384.656 12.423ZM417.275 44.544L416.41 45.0446L416.414 45.0524L417.275 44.544ZM417.275 137.67L416.414 137.162L416.41 137.169L417.275 137.67ZM384.407 170.04L383.919 169.167L383.915 169.17L384.407 170.04ZM364.487 119.742L365.247 120.393L365.254 120.384L364.487 119.742ZM364.487 62.472L363.721 63.114L363.728 63.1228L364.487 62.472ZM313.442 62.472L314.202 63.1228L314.209 63.1139L313.442 62.472ZM313.442 119.742L312.676 120.384L312.683 120.393L313.442 119.742ZM339.089 180.743C322.654 180.743 307.551 176.883 293.762 169.167L292.785 170.913C306.884 178.801 322.325 182.743 339.089 182.743V180.743ZM293.766 169.17C280.142 161.455 269.313 150.791 261.267 137.162L259.544 138.178C267.766 152.105 278.849 163.021 292.781 170.91L293.766 169.17ZM261.267 137.162C253.231 123.55 249.204 108.207 249.204 91.107H247.204C247.204 108.535 251.312 124.234 259.544 138.178L261.267 137.162ZM249.204 91.107C249.204 74.0072 253.231 58.6643 261.267 45.0524L259.544 44.0356C251.312 57.9797 247.204 73.6788 247.204 91.107H249.204ZM261.267 45.0524C269.311 31.4253 280.139 20.8459 293.758 13.2976L292.789 11.5483C278.852 19.2721 267.767 30.1067 259.544 44.0356L261.267 45.0524ZM293.762 13.2957C307.551 5.58047 322.654 1.71999 339.089 1.71999V-0.280006C322.325 -0.280006 306.884 3.66151 292.785 11.5503L293.762 13.2957ZM339.089 1.71999C355.525 1.71999 370.543 5.58044 384.164 13.2932L385.149 11.5528C371.214 3.66154 355.853 -0.280006 339.089 -0.280006V1.71999ZM384.172 13.2976C397.789 20.8448 408.531 31.4218 416.41 45.0446L418.141 44.0434C410.083 30.1102 399.079 19.2731 385.141 11.5483L384.172 13.2976ZM416.414 45.0524C424.45 58.6643 428.476 74.0072 428.476 91.107H430.476C430.476 73.6788 426.369 57.9797 418.137 44.0356L416.414 45.0524ZM428.476 91.107C428.476 108.207 424.45 123.55 416.414 137.162L418.137 138.178C426.369 124.234 430.476 108.535 430.476 91.107H428.476ZM416.41 137.169C408.532 150.791 397.707 161.453 383.919 169.167L384.896 170.913C398.996 163.023 410.083 152.105 418.141 138.171L416.41 137.169ZM383.915 169.17C370.293 176.883 355.358 180.743 339.089 180.743V182.743C355.689 182.743 370.966 178.801 384.9 170.91L383.915 169.17ZM339.089 131.2C350.275 131.2 359.044 127.63 365.247 120.393L363.728 119.091C357.979 125.798 349.815 129.2 339.089 129.2V131.2ZM365.254 120.384C371.419 113.02 374.451 103.226 374.451 91.107H372.451C372.451 102.892 369.508 112.188 363.721 119.1L365.254 120.384ZM374.451 91.107C374.451 78.8277 371.422 69.0256 365.247 61.8212L363.728 63.1228C369.505 69.8624 372.451 79.1503 372.451 91.107H374.451ZM365.254 61.8301C359.054 54.4241 350.283 50.765 339.089 50.765V52.765C349.807 52.765 357.969 56.2439 363.721 63.1139L365.254 61.8301ZM339.089 50.765C327.735 50.765 318.879 54.4205 312.676 61.8301L314.209 63.1139C319.958 56.2475 328.2 52.765 339.089 52.765V50.765ZM312.683 61.8212C306.508 69.0256 303.478 78.8277 303.478 91.107H305.478C305.478 79.1503 308.425 69.8624 314.202 63.1228L312.683 61.8212ZM303.478 91.107C303.478 103.226 306.51 113.02 312.676 120.384L314.209 119.1C308.422 112.188 305.478 102.892 305.478 91.107H303.478ZM312.683 120.393C318.889 127.633 327.743 131.2 339.089 131.2V129.2C328.192 129.2 319.948 125.795 314.202 119.091L312.683 120.393ZM678.249 180V181H679.249V180H678.249ZM622.971 180L622.136 180.551L622.433 181H622.971V180ZM564.456 91.356L565.29 90.8051L563.456 88.0259V91.356H564.456ZM564.456 180V181H565.456V180H564.456ZM509.178 180H508.178V181H509.178V180ZM509.178 3.708V2.708H508.178V3.708H509.178ZM564.456 3.708L565.295 3.1635L564.999 2.708H564.456V3.708ZM622.971 93.846L622.132 94.3905L623.971 97.223V93.846H622.971ZM622.971 3.708V2.708H621.971V3.708H622.971ZM678.249 3.708H679.249V2.708H678.249V3.708ZM678.249 179H622.971V181H678.249V179ZM623.805 179.449L565.29 90.8051L563.621 91.9069L622.136 180.551L623.805 179.449ZM563.456 91.356V180H565.456V91.356H563.456ZM564.456 179H509.178V181H564.456V179ZM510.178 180V3.708H508.178V180H510.178ZM509.178 4.708H564.456V2.708H509.178V4.708ZM563.617 4.25249L622.132 94.3905L623.81 93.3015L565.295 3.1635L563.617 4.25249ZM623.971 93.846V3.708H621.971V93.846H623.971ZM622.971 4.708H678.249V2.708H622.971V4.708ZM677.249 3.708V180H679.249V3.708H677.249ZM901.427 3.708H902.427V2.708H901.427V3.708ZM901.427 47.532V48.532H902.427V47.532H901.427ZM854.615 47.532V46.532H853.615V47.532H854.615ZM854.615 180V181H855.615V180H854.615ZM799.337 180H798.337V181H799.337V180ZM799.337 47.532H800.337V46.532H799.337V47.532ZM753.023 47.532H752.023V48.532H753.023V47.532ZM753.023 3.708V2.708H752.023V3.708H753.023ZM900.427 3.708V47.532H902.427V3.708H900.427ZM901.427 46.532H854.615V48.532H901.427V46.532ZM853.615 47.532V180H855.615V47.532H853.615ZM854.615 179H799.337V181H854.615V179ZM800.337 180V47.532H798.337V180H800.337ZM799.337 46.532H753.023V48.532H799.337V46.532ZM754.023 47.532V3.708H752.023V47.532H754.023ZM753.023 4.708H901.427V2.708H753.023V4.708ZM1089.23 153.357L1090.18 153.046L1089.95 152.357H1089.23V153.357ZM1030.46 153.357V152.357H1029.74L1029.51 153.046L1030.46 153.357ZM1021.75 180V181H1022.47L1022.7 180.311L1021.75 180ZM963.729 180L962.79 179.656L962.299 181H963.729V180ZM1028.22 3.708V2.708H1027.52L1027.28 3.36445L1028.22 3.708ZM1091.96 3.708L1092.9 3.36562L1092.66 2.708H1091.96V3.708ZM1156.21 180V181H1157.64L1157.15 179.658L1156.21 180ZM1097.94 180L1096.99 180.311L1097.22 181H1097.94V180ZM1075.78 111.774V112.774H1077.16L1076.73 111.465L1075.78 111.774ZM1059.84 62.721L1060.79 62.412L1059.84 59.4845L1058.89 62.412L1059.84 62.721ZM1043.91 111.774L1042.96 111.465L1042.53 112.774H1043.91V111.774ZM1089.23 152.357H1030.46V154.357H1089.23V152.357ZM1029.51 153.046L1020.8 179.689L1022.7 180.311L1031.41 153.668L1029.51 153.046ZM1021.75 179H963.729V181H1021.75V179ZM964.668 180.344L1029.16 4.05155L1027.28 3.36445L962.79 179.656L964.668 180.344ZM1028.22 4.708H1091.96V2.708H1028.22V4.708ZM1091.02 4.05038L1155.27 180.342L1157.15 179.658L1092.9 3.36562L1091.02 4.05038ZM1156.21 179H1097.94V181H1156.21V179ZM1098.89 179.689L1090.18 153.046L1088.27 153.668L1096.99 180.311L1098.89 179.689ZM1076.73 111.465L1060.79 62.412L1058.89 63.03L1074.83 112.083L1076.73 111.465ZM1058.89 62.412L1042.96 111.465L1044.86 112.083L1060.79 63.03L1058.89 62.412ZM1043.91 112.774H1075.78V110.774H1043.91V112.774ZM1366.97 3.708H1367.97V2.708H1366.97V3.708ZM1366.97 47.532V48.532H1367.97V47.532H1366.97ZM1320.16 47.532V46.532H1319.16V47.532H1320.16ZM1320.16 180V181H1321.16V180H1320.16ZM1264.88 180H1263.88V181H1264.88V180ZM1264.88 47.532H1265.88V46.532H1264.88V47.532ZM1218.57 47.532H1217.57V48.532H1218.57V47.532ZM1218.57 3.708V2.708H1217.57V3.708H1218.57ZM1365.97 3.708V47.532H1367.97V3.708H1365.97ZM1366.97 46.532H1320.16V48.532H1366.97V46.532ZM1319.16 47.532V180H1321.16V47.532H1319.16ZM1320.16 179H1264.88V181H1320.16V179ZM1265.88 180V47.532H1263.88V180H1265.88ZM1264.88 46.532H1218.57V48.532H1264.88V46.532ZM1219.57 47.532V3.708H1217.57V47.532H1219.57ZM1218.57 4.708H1366.97V2.708H1218.57V4.708ZM1481.81 170.04L1481.32 170.91L1481.32 170.913L1481.81 170.04ZM1448.94 137.67L1448.08 138.178L1448.94 137.67ZM1481.81 12.423L1482.3 13.2977L1482.3 13.2957L1481.81 12.423ZM1573.19 12.423L1572.7 13.2932L1572.71 13.2976L1573.19 12.423ZM1605.81 44.544L1604.95 45.0446L1604.95 45.0524L1605.81 44.544ZM1605.81 137.67L1604.95 137.162L1604.95 137.169L1605.81 137.67ZM1572.94 170.04L1572.46 169.167L1572.45 169.17L1572.94 170.04ZM1553.02 119.742L1553.78 120.393L1553.79 120.384L1553.02 119.742ZM1553.02 62.472L1552.26 63.114L1552.27 63.1228L1553.02 62.472ZM1501.98 62.472L1502.74 63.1228L1502.75 63.1139L1501.98 62.472ZM1501.98 119.742L1501.21 120.384L1501.22 120.393L1501.98 119.742ZM1527.63 180.743C1511.19 180.743 1496.09 176.883 1482.3 169.167L1481.32 170.913C1495.42 178.801 1510.86 182.743 1527.63 182.743V180.743ZM1482.3 169.17C1468.68 161.455 1457.85 150.791 1449.8 137.162L1448.08 138.178C1456.3 152.105 1467.39 163.021 1481.32 170.91L1482.3 169.17ZM1449.8 137.162C1441.77 123.55 1437.74 108.207 1437.74 91.107H1435.74C1435.74 108.535 1439.85 124.234 1448.08 138.178L1449.8 137.162ZM1437.74 91.107C1437.74 74.0072 1441.77 58.6643 1449.8 45.0524L1448.08 44.0356C1439.85 57.9797 1435.74 73.6788 1435.74 91.107H1437.74ZM1449.8 45.0524C1457.85 31.4253 1468.68 20.8459 1482.3 13.2976L1481.33 11.5483C1467.39 19.2721 1456.3 30.1067 1448.08 44.0356L1449.8 45.0524ZM1482.3 13.2957C1496.09 5.58047 1511.19 1.71999 1527.63 1.71999V-0.280006C1510.86 -0.280006 1495.42 3.66151 1481.32 11.5503L1482.3 13.2957ZM1527.63 1.71999C1544.06 1.71999 1559.08 5.58044 1572.7 13.2932L1573.69 11.5528C1559.75 3.66154 1544.39 -0.280006 1527.63 -0.280006V1.71999ZM1572.71 13.2976C1586.33 20.8448 1597.07 31.4218 1604.95 45.0446L1606.68 44.0434C1598.62 30.1102 1587.62 19.2731 1573.68 11.5483L1572.71 13.2976ZM1604.95 45.0524C1612.99 58.6643 1617.01 74.0072 1617.01 91.107H1619.01C1619.01 73.6788 1614.91 57.9797 1606.67 44.0356L1604.95 45.0524ZM1617.01 91.107C1617.01 108.207 1612.99 123.55 1604.95 137.162L1606.67 138.178C1614.91 124.234 1619.01 108.535 1619.01 91.107H1617.01ZM1604.95 137.169C1597.07 150.791 1586.24 161.453 1572.46 169.167L1573.43 170.913C1587.53 163.023 1598.62 152.105 1606.68 138.171L1604.95 137.169ZM1572.45 169.17C1558.83 176.883 1543.89 180.743 1527.63 180.743V182.743C1544.23 182.743 1559.5 178.801 1573.44 170.91L1572.45 169.17ZM1527.63 131.2C1538.81 131.2 1547.58 127.63 1553.78 120.393L1552.27 119.091C1546.52 125.798 1538.35 129.2 1527.63 129.2V131.2ZM1553.79 120.384C1559.96 113.02 1562.99 103.226 1562.99 91.107H1560.99C1560.99 102.892 1558.04 112.188 1552.26 119.1L1553.79 120.384ZM1562.99 91.107C1562.99 78.8277 1559.96 69.0256 1553.78 61.8212L1552.27 63.1228C1558.04 69.8624 1560.99 79.1503 1560.99 91.107H1562.99ZM1553.79 61.8301C1547.59 54.4241 1538.82 50.765 1527.63 50.765V52.765C1538.34 52.765 1546.51 56.2439 1552.26 63.1139L1553.79 61.8301ZM1527.63 50.765C1516.27 50.765 1507.42 54.4205 1501.21 61.8301L1502.75 63.1139C1508.5 56.2475 1516.74 52.765 1527.63 52.765V50.765ZM1501.22 61.8212C1495.05 69.0256 1492.02 78.8277 1492.02 91.107H1494.02C1494.02 79.1503 1496.96 69.8624 1502.74 63.1228L1501.22 61.8212ZM1492.02 91.107C1492.02 103.226 1495.05 113.02 1501.21 120.384L1502.75 119.1C1496.96 112.188 1494.02 102.892 1494.02 91.107H1492.02ZM1501.22 120.393C1507.43 127.633 1516.28 131.2 1527.63 131.2V129.2C1516.73 129.2 1508.49 125.795 1502.74 119.091L1501.22 120.393Z" fill="#E0E0E0" fill-opacity="0.4"/>
</svg>
