<svg width="838" height="182" viewBox="0 0 838 182" fill="none" xmlns="http://www.w3.org/2000/svg">
<path d="M179.311 3.708H180.311V2.708H179.311V3.708ZM179.311 180V181H180.311V180H179.311ZM124.282 180H123.282V181H124.282V180ZM124.282 92.103H125.282L123.327 91.808L124.282 92.103ZM97.1411 180V181H97.8788L98.0966 180.295L97.1411 180ZM49.8311 180L48.8755 180.295L49.0933 181H49.8311V180ZM22.6901 92.103L23.6455 91.808L21.6901 92.103H22.6901ZM22.6901 180V181H23.6901V180H22.6901ZM-32.588 180H-33.588V181H-32.588V180ZM-32.588 3.708V2.708H-33.588V3.708H-32.588ZM35.14 3.708L36.0788 3.36342L35.8382 2.708H35.14V3.708ZM73.9841 109.533L73.0453 109.878L73.9963 112.468L74.9257 109.87L73.9841 109.533ZM111.832 3.708V2.708H111.128L110.89 3.37124L111.832 3.708ZM178.311 3.708V180H180.311V3.708H178.311ZM179.311 179H124.282V181H179.311V179ZM125.282 180V92.103H123.282V180H125.282ZM123.327 91.808L96.1855 179.705L98.0966 180.295L125.238 92.398L123.327 91.808ZM97.1411 179H49.8311V181H97.1411V179ZM50.7865 179.705L23.6455 91.808L21.7346 92.398L48.8755 180.295L50.7865 179.705ZM21.6901 92.103V180H23.6901V92.103H21.6901ZM22.6901 179H-32.588V181H22.6901V179ZM-31.588 180V3.708H-33.588V180H-31.588ZM-32.588 4.708H35.14V2.708H-32.588V4.708ZM34.2013 4.05258L73.0453 109.878L74.9228 109.188L36.0788 3.36342L34.2013 4.05258ZM74.9257 109.87L112.774 4.04475L110.89 3.37124L73.0424 109.196L74.9257 109.87ZM111.832 4.708H179.311V2.708H111.832V4.708ZM319.292 47.781V46.781H318.292V47.781H319.292ZM319.292 69.444H318.292V70.444H319.292V69.444ZM374.072 69.444H375.072V68.444H374.072V69.444ZM374.072 111.027V112.027H375.072V111.027H374.072ZM319.292 111.027V110.027H318.292V111.027H319.292ZM319.292 135.927H318.292V136.927H319.292V135.927ZM381.542 135.927H382.542V134.927H381.542V135.927ZM381.542 180V181H382.542V180H381.542ZM264.014 180H263.014V181H264.014V180ZM264.014 3.708V2.708H263.014V3.708H264.014ZM381.542 3.708H382.542V2.708H381.542V3.708ZM381.542 47.781V48.781H382.542V47.781H381.542ZM318.292 47.781V69.444H320.292V47.781H318.292ZM319.292 70.444H374.072V68.444H319.292V70.444ZM373.072 69.444V111.027H375.072V69.444H373.072ZM374.072 110.027H319.292V112.027H374.072V110.027ZM318.292 111.027V135.927H320.292V111.027H318.292ZM319.292 136.927H381.542V134.927H319.292V136.927ZM380.542 135.927V180H382.542V135.927H380.542ZM381.542 179H264.014V181H381.542V179ZM265.014 180V3.708H263.014V180H265.014ZM264.014 4.708H381.542V2.708H264.014V4.708ZM380.542 3.708V47.781H382.542V3.708H380.542ZM381.542 46.781H319.292V48.781H381.542V46.781ZM516.167 3.708H517.167V2.708H516.167V3.708ZM521.396 122.481L520.586 123.068L520.598 123.083L520.61 123.099L521.396 122.481ZM556.505 122.481L557.278 123.116L557.283 123.109L557.289 123.102L556.505 122.481ZM562.232 3.708V2.708H561.232V3.708H562.232ZM617.261 3.708H618.261V2.708H617.261V3.708ZM606.803 146.136L607.664 146.645L607.667 146.64L606.803 146.136ZM578.168 172.779L578.61 173.676L578.168 172.779ZM497.741 172.779L497.279 173.666L497.284 173.668L497.741 172.779ZM470.849 146.136L469.973 146.617L470.849 146.136ZM461.138 3.708V2.708H460.138V3.708H461.138ZM515.167 3.708V103.059H517.167V3.708H515.167ZM515.167 103.059C515.167 111.328 516.939 118.03 520.586 123.068L522.206 121.894C518.882 117.304 517.167 111.058 517.167 103.059H515.167ZM520.61 123.099C524.512 128.066 530.666 130.453 538.826 130.453V128.453C531.051 128.453 525.584 126.192 522.182 121.863L520.61 123.099ZM538.826 130.453C546.99 130.453 553.213 128.065 557.278 123.116L555.732 121.846C552.162 126.193 546.599 128.453 538.826 128.453V130.453ZM557.289 123.102C561.286 118.062 563.232 111.345 563.232 103.059H561.232C561.232 111.041 559.36 117.272 555.722 121.86L557.289 123.102ZM563.232 103.059V3.708H561.232V103.059H563.232ZM562.232 4.708H617.261V2.708H562.232V4.708ZM616.261 3.708V103.059H618.261V3.708H616.261ZM616.261 103.059C616.261 119.685 612.805 133.862 605.939 145.632L607.667 146.64C614.745 134.506 618.261 119.965 618.261 103.059H616.261ZM605.943 145.627C599.068 157.248 589.667 165.993 577.726 171.882L578.61 173.676C590.905 167.613 600.594 158.596 607.664 146.645L605.943 145.627ZM577.726 171.882C565.76 177.783 552.384 180.743 537.581 180.743V182.743C552.658 182.743 566.341 179.727 578.61 173.676L577.726 171.882ZM537.581 180.743C522.777 180.743 509.658 177.783 498.199 171.89L497.284 173.668C509.064 179.727 522.505 182.743 537.581 182.743V180.743ZM498.204 171.892C486.932 166.012 478.109 157.275 471.726 145.655L469.973 146.617C476.538 158.569 485.642 167.594 497.279 173.666L498.204 171.892ZM471.726 145.655C465.351 134.05 462.138 119.865 462.138 103.059H460.138C460.138 120.117 463.399 134.65 469.973 146.617L471.726 145.655ZM462.138 103.059V3.708H460.138V103.059H462.138ZM461.138 4.708H516.167V2.708H461.138V4.708ZM717.546 167.052L716.955 167.859L716.966 167.867L717.546 167.052ZM695.385 123.477V122.477H694.322L694.387 123.538L695.385 123.477ZM754.149 123.477L755.146 123.395L755.07 122.477H754.149V123.477ZM775.065 136.674L775.62 137.506L775.627 137.501L775.634 137.496L775.065 136.674ZM771.579 119.991L771.069 120.851L771.081 120.858L771.093 120.865L771.579 119.991ZM750.663 111.027L750.33 111.97L750.332 111.971L750.663 111.027ZM722.526 99.324L722.063 100.21L722.071 100.214L722.526 99.324ZM703.602 82.641L704.411 82.0528L703.602 82.641ZM695.883 54.504L696.883 54.5185L696.883 54.5112V54.504H695.883ZM704.598 25.371L703.792 24.7789L703.79 24.7818L704.598 25.371ZM728.751 6.94498L728.377 6.01753L728.372 6.01968L728.751 6.94498ZM814.656 15.66L814.036 16.4449L814.041 16.4488L814.656 15.66ZM834.825 57.741V58.741H835.862L835.824 57.7043L834.825 57.741ZM775.314 57.741L774.314 57.7743L774.347 58.741H775.314V57.741ZM757.386 46.287L758.093 46.9941L758.112 46.9755L758.129 46.956L757.386 46.287ZM761.619 62.721L761.095 63.5726L761.114 63.5843L761.133 63.5952L761.619 62.721ZM782.784 71.934L782.429 72.869L782.434 72.8709L782.784 71.934ZM810.174 83.886L809.702 84.7678L809.711 84.7722L810.174 83.886ZM829.098 99.822L828.31 100.437L829.098 99.822ZM829.098 154.602L829.945 155.134L829.949 155.126L829.098 154.602ZM805.941 174.522L805.511 173.619L805.941 174.522ZM769.836 180.743C748.91 180.743 731.696 175.884 718.125 166.237L716.966 167.867C730.952 177.808 748.598 182.743 769.836 182.743V180.743ZM718.136 166.245C704.798 156.486 697.53 142.254 696.383 123.416L694.387 123.538C695.564 142.88 703.069 157.698 716.955 167.859L718.136 166.245ZM695.385 124.477H754.149V122.477H695.385V124.477ZM753.152 123.559C753.576 128.734 754.944 132.775 757.384 135.532C759.853 138.321 763.305 139.666 767.595 139.666V137.666C763.751 137.666 760.895 136.48 758.882 134.206C756.84 131.899 755.551 128.346 755.146 123.395L753.152 123.559ZM767.595 139.666C770.731 139.666 773.427 138.968 775.62 137.506L774.51 135.842C772.719 137.036 770.434 137.666 767.595 137.666V139.666ZM775.634 137.496C778.102 135.787 779.302 133.214 779.302 129.951H777.302C777.302 132.664 776.343 134.573 774.496 135.852L775.634 137.496ZM779.302 129.951C779.302 125.347 776.776 121.734 772.064 119.117L771.093 120.865C775.346 123.228 777.302 126.255 777.302 129.951H779.302ZM772.089 119.131C767.52 116.423 760.472 113.409 750.994 110.083L750.332 111.971C759.777 115.285 766.674 118.247 771.069 120.851L772.089 119.131ZM750.996 110.084C739.734 106.109 730.399 102.225 722.981 98.4336L722.071 100.214C729.593 104.059 739.016 107.977 750.33 111.97L750.996 110.084ZM722.989 98.4378C715.834 94.6978 709.641 89.2443 704.411 82.0528L702.793 83.2292C708.187 90.6457 714.609 96.3142 722.063 100.21L722.989 98.4378ZM704.411 82.0528C699.256 74.9659 696.719 65.8148 696.883 54.5185L694.883 54.4895C694.715 66.1012 697.323 75.7081 702.793 83.2292L704.411 82.0528ZM696.883 54.504C696.883 43.2263 699.74 33.7305 705.406 25.9602L703.79 24.7818C697.836 32.9475 694.883 42.8736 694.883 54.504H696.883ZM705.404 25.9631C711.262 17.9897 719.159 11.9566 729.13 7.87029L728.372 6.01968C718.09 10.2333 709.886 16.4843 703.792 24.7789L705.404 25.9631ZM729.125 7.87243C739.281 3.77706 750.689 1.71999 763.362 1.71999V-0.280006C750.471 -0.280006 738.804 1.81292 728.377 6.01755L729.125 7.87243ZM763.362 1.71999C784.794 1.71999 801.649 6.66531 814.036 16.4449L815.276 14.8751C802.431 4.73467 785.09 -0.280006 763.362 -0.280006V1.71999ZM814.041 16.4488C826.561 26.2045 833.171 39.9399 833.826 57.7777L835.824 57.7043C835.151 39.3541 828.315 25.0355 815.271 14.8712L814.041 16.4488ZM834.825 56.741H775.314V58.741H834.825V56.741ZM776.313 57.7077C776.143 52.609 774.865 48.721 772.259 46.3012L770.898 47.7668C772.94 49.663 774.152 52.913 774.314 57.7743L776.313 57.7077ZM772.259 46.3012C769.741 43.9628 766.672 42.797 763.113 42.797V44.797C766.193 44.797 768.769 45.7892 770.898 47.7668L772.259 46.3012ZM763.113 42.797C760.518 42.797 758.335 43.7378 756.643 45.618L758.129 46.956C759.425 45.5162 761.059 44.797 763.113 44.797V42.797ZM756.679 45.5799C754.941 47.3177 754.145 49.7657 754.145 52.761H756.145C756.145 50.1123 756.843 48.2443 758.093 46.9941L756.679 45.5799ZM754.145 52.761C754.145 57.1881 756.575 60.7913 761.095 63.5726L762.143 61.8693C758.031 59.3387 756.145 56.3019 756.145 52.761H754.145ZM761.133 63.5952C765.681 66.1217 772.792 69.2133 782.429 72.869L783.139 70.999C773.52 67.3507 766.521 64.3003 762.104 61.8468L761.133 63.5952ZM782.434 72.8709C793.532 77.0118 802.617 80.9781 809.702 84.7678L810.646 83.0042C803.455 79.1579 794.28 75.1562 783.133 70.9971L782.434 72.8709ZM809.711 84.7722C816.882 88.521 823.081 93.7383 828.31 100.437L829.886 99.2067C824.491 92.2937 818.074 86.887 810.637 82.9998L809.711 84.7722ZM828.31 100.437C833.459 107.035 836.066 115.356 836.066 125.469H838.066C838.066 114.998 835.36 106.221 829.886 99.2067L828.31 100.437ZM836.066 125.469C836.066 136.086 833.455 145.614 828.246 154.078L829.949 155.126C835.365 146.326 838.066 136.432 838.066 125.469H836.066ZM828.251 154.071C823.052 162.356 815.487 168.876 805.511 173.619L806.37 175.425C816.646 170.54 824.52 163.78 829.945 155.133L828.251 154.071ZM805.511 173.619C795.548 178.355 783.667 180.743 769.836 180.743V182.743C783.893 182.743 796.081 180.316 806.37 175.425L805.511 173.619Z" fill="#E0E0E0" fill-opacity="0.4"/>
</svg>
