<svg width="628" height="177" viewBox="0 0 628 177" fill="none" xmlns="http://www.w3.org/2000/svg">
<path d="M212.125 0.708H213.125V-0.292H212.125V0.708ZM212.125 177V178H213.125V177H212.125ZM157.096 177H156.096V178H157.096V177ZM157.096 89.103H158.096L156.141 88.808L157.096 89.103ZM129.955 177V178H130.693L130.911 177.295L129.955 177ZM82.6451 177L81.6896 177.295L81.9073 178H82.6451V177ZM55.5042 89.103L56.4596 88.808L54.5042 89.103H55.5042ZM55.5042 177V178H56.5042V177H55.5042ZM0.226135 177H-0.773865V178H0.226135V177ZM0.226135 0.708V-0.292H-0.773865V0.708H0.226135ZM67.9541 0.708L68.8929 0.363419L68.6523 -0.292H67.9541V0.708ZM106.798 106.533L105.859 106.878L106.81 109.468L107.74 106.87L106.798 106.533ZM144.646 0.708V-0.292H143.942L143.705 0.371239L144.646 0.708ZM211.125 0.708V177H213.125V0.708H211.125ZM212.125 176H157.096V178H212.125V176ZM158.096 177V89.103H156.096V177H158.096ZM156.141 88.808L129 176.705L130.911 177.295L158.052 89.398L156.141 88.808ZM129.955 176H82.6451V178H129.955V176ZM83.6006 176.705L56.4596 88.808L54.5486 89.398L81.6896 177.295L83.6006 176.705ZM54.5042 89.103V177H56.5042V89.103H54.5042ZM55.5042 176H0.226135V178H55.5042V176ZM1.22614 177V0.708H-0.773865V177H1.22614ZM0.226135 1.708H67.9541V-0.292H0.226135V1.708ZM67.0154 1.05258L105.859 106.878L107.737 106.188L68.8929 0.363419L67.0154 1.05258ZM107.74 106.87L145.588 1.04475L143.705 0.371239L105.857 106.196L107.74 106.87ZM144.646 1.708H212.125V-0.292H144.646V1.708ZM352.106 0.708H353.106V-0.292H352.106V0.708ZM352.106 177V178H353.106V177H352.106ZM296.828 177H295.828V178H296.828V177ZM296.828 0.708V-0.292H295.828V0.708H296.828ZM351.106 0.708V177H353.106V0.708H351.106ZM352.106 176H296.828V178H352.106V176ZM297.828 177V0.708H295.828V177H297.828ZM296.828 1.708H352.106V-0.292H296.828V1.708ZM648.731 0.708H649.731V-0.292H648.731V0.708ZM648.731 177V178H649.731V177H648.731ZM593.702 177H592.702V178H593.702V177ZM593.702 89.103H594.702L592.747 88.808L593.702 89.103ZM566.561 177V178H567.299L567.517 177.295L566.561 177ZM519.251 177L518.296 177.295L518.513 178H519.251V177ZM492.11 89.103L493.066 88.808L491.11 89.103H492.11ZM492.11 177V178H493.11V177H492.11ZM436.832 177H435.832V178H436.832V177ZM436.832 0.708V-0.292H435.832V0.708H436.832ZM504.56 0.708L505.499 0.363419L505.258 -0.292H504.56V0.708ZM543.404 106.533L542.465 106.878L543.416 109.468L544.346 106.87L543.404 106.533ZM581.252 0.708V-0.292H580.548L580.311 0.371239L581.252 0.708ZM647.731 0.708V177H649.731V0.708H647.731ZM648.731 176H593.702V178H648.731V176ZM594.702 177V89.103H592.702V177H594.702ZM592.747 88.808L565.606 176.705L567.517 177.295L594.658 89.398L592.747 88.808ZM566.561 176H519.251V178H566.561V176ZM520.207 176.705L493.066 88.808L491.155 89.398L518.296 177.295L520.207 176.705ZM491.11 89.103V177H493.11V89.103H491.11ZM492.11 176H436.832V178H492.11V176ZM437.832 177V0.708H435.832V177H437.832ZM436.832 1.708H504.56V-0.292H436.832V1.708ZM503.621 1.05258L542.465 106.878L544.343 106.188L505.499 0.363419L503.621 1.05258ZM544.346 106.87L582.194 1.04475L580.311 0.371239L542.463 106.196L544.346 106.87ZM581.252 1.708H648.731V-0.292H581.252V1.708Z" fill="#E0E0E0" fill-opacity="0.4"/>
</svg>
