<svg width="1215" height="182" viewBox="0 0 1215 182" fill="none" xmlns="http://www.w3.org/2000/svg">
<path d="M137.279 94.593L138.146 95.0909L138.15 95.084L137.279 94.593ZM114.371 116.007L113.906 115.121L113.9 115.125L114.371 116.007ZM56.1049 123.975V122.975H55.1049V123.975H56.1049ZM56.1049 180V181H57.1049V180H56.1049ZM0.826843 180H-0.173157V181H0.826843V180ZM0.826843 3.708V2.708H-0.173157V3.708H0.826843ZM127.568 20.142L126.877 20.8647L126.882 20.8696L127.568 20.142ZM56.1049 48.03V47.03H55.1049V48.03H56.1049ZM56.1049 80.4H55.1049V81.4H56.1049V80.4ZM143.998 64.215C143.998 75.1759 141.464 85.1311 136.408 94.102L138.15 95.084C143.386 85.7949 145.998 75.4981 145.998 64.215H143.998ZM136.412 94.0951C131.37 102.877 123.882 109.888 113.906 115.121L114.835 116.893C125.111 111.502 132.896 104.237 138.146 95.0909L136.412 94.0951ZM113.9 115.125C104.118 120.342 92.1712 122.975 78.0168 122.975V124.975C92.4145 124.975 104.703 122.296 114.841 116.889L113.9 115.125ZM78.0168 122.975H56.1049V124.975H78.0168V122.975ZM55.1049 123.975V180H57.1049V123.975H55.1049ZM56.1049 179H0.826843V181H56.1049V179ZM1.82684 180V3.708H-0.173157V180H1.82684ZM0.826843 4.708H78.0168V2.708H0.826843V4.708ZM78.0168 4.708C99.4341 4.708 115.667 10.1429 126.877 20.8646L128.259 19.4193C116.56 8.22912 99.7595 2.708 78.0168 2.708V4.708ZM126.882 20.8696C138.27 31.6071 143.998 46.0181 143.998 64.215H145.998C145.998 45.5599 140.106 30.5889 128.254 19.4144L126.882 20.8696ZM71.7918 81.4C77.6586 81.4 82.2446 80.0195 85.3633 77.0816C88.4931 74.1332 89.9728 69.7799 89.9728 64.215H87.9728C87.9728 69.4401 86.5891 73.1792 83.9919 75.6259C81.3835 78.083 77.3791 79.4 71.7918 79.4V81.4ZM89.9728 64.215C89.9728 58.6501 88.4931 54.2968 85.3633 51.3484C82.2446 48.4105 77.6586 47.03 71.7918 47.03V49.03C77.3791 49.03 81.3835 50.347 83.9919 52.8041C86.5891 55.2507 87.9728 58.9899 87.9728 64.215H89.9728ZM71.7918 47.03H56.1049V49.03H71.7918V47.03ZM55.1049 48.03V80.4H57.1049V48.03H55.1049ZM56.1049 81.4H71.7918V79.4H56.1049V81.4ZM310.935 180L310.049 180.464L310.33 181H310.935V180ZM277.818 116.754L278.704 116.29L278.423 115.754H277.818V116.754ZM277.569 116.754V115.754H276.569V116.754H277.569ZM277.569 180V181H278.569V180H277.569ZM222.291 180H221.291V181H222.291V180ZM222.291 3.708V2.708H221.291V3.708H222.291ZM341.064 11.427L340.611 12.3186L340.623 12.3243L341.064 11.427ZM363.723 32.094L362.853 32.5866L362.858 32.5964L362.864 32.6061L363.723 32.094ZM361.482 92.85L360.673 92.2618L360.666 92.2716L361.482 92.85ZM333.345 112.521L333.036 111.57L331.869 111.948L332.476 113.015L333.345 112.521ZM371.691 180V181H373.409L372.56 179.506L371.691 180ZM277.569 79.902H276.569V80.902H277.569V79.902ZM311.433 76.416L312.091 77.1686L312.104 77.1573L312.117 77.1455L311.433 76.416ZM311.184 54.006L310.477 54.7131L310.488 54.7238L310.499 54.7342L311.184 54.006ZM277.569 50.022V49.022H276.569V50.022H277.569ZM311.821 179.536L278.704 116.29L276.932 117.218L310.049 180.464L311.821 179.536ZM277.818 115.754H277.569V117.754H277.818V115.754ZM276.569 116.754V180H278.569V116.754H276.569ZM277.569 179H222.291V181H277.569V179ZM223.291 180V3.708H221.291V180H223.291ZM222.291 4.708H304.461V2.708H222.291V4.708ZM304.461 4.708C318.619 4.708 330.657 7.25978 340.611 12.3185L341.517 10.5355C331.219 5.30222 318.855 2.708 304.461 2.708V4.708ZM340.623 12.3243C350.59 17.2263 357.983 23.9836 362.853 32.5866L364.593 31.6014C359.503 22.6084 351.79 15.5877 341.505 10.5296L340.623 12.3243ZM362.864 32.6061C367.909 41.0694 370.442 50.6835 370.442 61.476H372.442C372.442 50.3565 369.828 40.3826 364.582 31.5819L362.864 32.6061ZM370.442 61.476C370.442 73.0606 367.183 83.3106 360.673 92.2618L362.291 93.4382C369.061 84.1294 372.442 73.4634 372.442 61.476H370.442ZM360.666 92.2716C354.335 101.2 345.148 107.642 333.036 111.57L333.653 113.472C346.109 109.432 355.681 102.76 362.298 93.4284L360.666 92.2716ZM332.476 113.015L370.822 180.494L372.56 179.506L334.214 112.027L332.476 113.015ZM371.691 179H310.935V181H371.691V179ZM277.569 80.902H299.481V78.902H277.569V80.902ZM299.481 80.902C304.917 80.902 309.18 79.7158 312.091 77.1686L310.774 75.6634C308.374 77.7642 304.669 78.902 299.481 78.902V80.902ZM312.117 77.1455C315.046 74.3992 316.417 70.2677 316.417 64.962H314.417C314.417 69.9483 313.132 73.4528 310.749 75.6865L312.117 77.1455ZM316.417 64.962C316.417 60.0977 314.932 56.16 311.869 53.2778L310.499 54.7342C313.08 57.164 314.417 60.5303 314.417 64.962H316.417ZM311.891 53.2989C308.987 50.3946 304.792 49.022 299.481 49.022V51.022C304.462 51.022 308.069 52.3054 310.477 54.7131L311.891 53.2989ZM299.481 49.022H277.569V51.022H299.481V49.022ZM276.569 50.022V79.902H278.569V50.022H276.569ZM488.951 170.04L488.458 170.91L488.462 170.913L488.951 170.04ZM456.083 137.67L455.221 138.178L456.083 137.67ZM488.951 12.423L489.435 13.2977L489.439 13.2957L488.951 12.423ZM580.333 12.423L579.841 13.2932L579.849 13.2976L580.333 12.423ZM612.953 44.544L612.087 45.0446L612.091 45.0524L612.953 44.544ZM612.953 137.67L612.091 137.162L612.087 137.169L612.953 137.67ZM580.084 170.04L579.596 169.167L579.592 169.17L580.084 170.04ZM560.165 119.742L560.924 120.393L560.931 120.384L560.165 119.742ZM560.165 62.472L559.398 63.114L559.405 63.1228L560.165 62.472ZM509.12 62.472L509.879 63.1228L509.886 63.1139L509.12 62.472ZM509.12 119.742L508.353 120.384L508.36 120.393L509.12 119.742ZM534.766 180.743C518.331 180.743 503.228 176.883 489.439 169.167L488.462 170.913C502.561 178.801 518.002 182.743 534.766 182.743V180.743ZM489.443 169.17C475.819 161.455 464.99 150.791 456.944 137.162L455.221 138.178C463.443 152.105 474.526 163.021 488.458 170.91L489.443 169.17ZM456.944 137.162C448.908 123.55 444.881 108.207 444.881 91.107H442.881C442.881 108.535 446.989 124.234 455.221 138.178L456.944 137.162ZM444.881 91.107C444.881 74.0072 448.908 58.6643 456.944 45.0524L455.221 44.0356C446.989 57.9797 442.881 73.6788 442.881 91.107H444.881ZM456.944 45.0524C464.989 31.4253 475.816 20.8459 489.435 13.2976L488.466 11.5483C474.529 19.2721 463.444 30.1067 455.221 44.0356L456.944 45.0524ZM489.439 13.2957C503.228 5.58047 518.331 1.71999 534.766 1.71999V-0.280006C518.002 -0.280006 502.561 3.66151 488.462 11.5503L489.439 13.2957ZM534.766 1.71999C551.203 1.71999 566.22 5.58044 579.841 13.2932L580.826 11.5528C566.891 3.66154 551.531 -0.280006 534.766 -0.280006V1.71999ZM579.849 13.2976C593.467 20.8448 604.209 31.4218 612.087 45.0446L613.818 44.0434C605.76 30.1102 594.756 19.2731 580.818 11.5483L579.849 13.2976ZM612.091 45.0524C620.127 58.6643 624.153 74.0072 624.153 91.107H626.153C626.153 73.6788 622.046 57.9797 613.814 44.0356L612.091 45.0524ZM624.153 91.107C624.153 108.207 620.127 123.55 612.091 137.162L613.814 138.178C622.046 124.234 626.153 108.535 626.153 91.107H624.153ZM612.087 137.169C604.209 150.791 593.384 161.453 579.596 169.167L580.573 170.913C594.673 163.023 605.76 152.105 613.818 138.171L612.087 137.169ZM579.592 169.17C565.97 176.883 551.035 180.743 534.766 180.743V182.743C551.366 182.743 566.643 178.801 580.577 170.91L579.592 169.17ZM534.766 131.2C545.952 131.2 554.721 127.63 560.924 120.393L559.405 119.091C553.656 125.798 545.493 129.2 534.766 129.2V131.2ZM560.931 120.384C567.096 113.02 570.129 103.226 570.129 91.107H568.129C568.129 102.892 565.185 112.188 559.398 119.1L560.931 120.384ZM570.129 91.107C570.129 78.8277 567.099 69.0256 560.924 61.8212L559.405 63.1228C565.182 69.8624 568.129 79.1503 568.129 91.107H570.129ZM560.931 61.8301C554.731 54.4241 545.96 50.765 534.766 50.765V52.765C545.485 52.765 553.646 56.2439 559.398 63.1139L560.931 61.8301ZM534.766 50.765C523.412 50.765 514.556 54.4205 508.353 61.8301L509.886 63.1139C515.635 56.2475 523.877 52.765 534.766 52.765V50.765ZM508.36 61.8212C502.185 69.0256 499.156 78.8277 499.156 91.107H501.156C501.156 79.1503 504.102 69.8624 509.879 63.1228L508.36 61.8212ZM499.156 91.107C499.156 103.226 502.188 113.02 508.353 120.384L509.886 119.1C504.099 112.188 501.156 102.892 501.156 91.107H499.156ZM508.36 120.393C514.566 127.633 523.42 131.2 534.766 131.2V129.2C523.869 129.2 515.625 125.795 509.879 119.091L508.36 120.393ZM827.861 3.708H828.861V2.708H827.861V3.708ZM811.178 165.558L811.88 166.27V166.27L811.178 165.558ZM713.819 164.064L714.501 163.333L713.819 164.064ZM694.895 112.521V111.521H693.895V112.521H694.895ZM749.426 112.521H750.426V111.521H749.426V112.521ZM752.912 127.71L752.122 128.324L752.131 128.335L752.14 128.346L752.912 127.71ZM770.093 128.706L769.329 128.06L770.093 128.706ZM772.832 3.708V2.708H771.832V3.708H772.832ZM826.861 3.708V117.501H828.861V3.708H826.861ZM826.861 117.501C826.861 138.412 821.348 154.136 810.476 164.846L811.88 166.27C823.252 155.068 828.861 138.754 828.861 117.501H826.861ZM810.476 164.846C799.758 175.401 784.602 180.743 764.864 180.743V182.743C784.966 182.743 800.686 177.295 811.88 166.27L810.476 164.846ZM764.864 180.743C743.639 180.743 726.89 174.907 714.501 163.333L713.136 164.795C725.979 176.793 743.26 182.743 764.864 182.743V180.743ZM714.501 163.333C702.145 151.79 695.895 134.91 695.895 112.521H693.895C693.895 135.284 700.26 152.766 713.136 164.795L714.501 163.333ZM694.895 113.521H749.426V111.521H694.895V113.521ZM748.426 112.521C748.426 119.711 749.585 125.062 752.122 128.324L753.701 127.096C751.59 124.382 750.426 119.607 750.426 112.521H748.426ZM752.14 128.346C754.672 131.421 758.121 132.943 762.374 132.943V130.943C758.658 130.943 755.799 129.643 753.684 127.074L752.14 128.346ZM762.374 132.943C765.931 132.943 768.806 131.775 770.856 129.352L769.329 128.06C767.727 129.953 765.456 130.943 762.374 130.943V132.943ZM770.856 129.352C772.921 126.911 773.832 122.868 773.832 117.501H771.832C771.832 122.758 770.916 126.185 769.329 128.06L770.856 129.352ZM773.832 117.501V3.708H771.832V117.501H773.832ZM772.832 4.708H827.861V2.708H772.832V4.708ZM966.764 47.781V46.781H965.764V47.781H966.764ZM966.764 69.444H965.764V70.444H966.764V69.444ZM1021.54 69.444H1022.54V68.444H1021.54V69.444ZM1021.54 111.027V112.027H1022.54V111.027H1021.54ZM966.764 111.027V110.027H965.764V111.027H966.764ZM966.764 135.927H965.764V136.927H966.764V135.927ZM1029.01 135.927H1030.01V134.927H1029.01V135.927ZM1029.01 180V181H1030.01V180H1029.01ZM911.486 180H910.486V181H911.486V180ZM911.486 3.708V2.708H910.486V3.708H911.486ZM1029.01 3.708H1030.01V2.708H1029.01V3.708ZM1029.01 47.781V48.781H1030.01V47.781H1029.01ZM965.764 47.781V69.444H967.764V47.781H965.764ZM966.764 70.444H1021.54V68.444H966.764V70.444ZM1020.54 69.444V111.027H1022.54V69.444H1020.54ZM1021.54 110.027H966.764V112.027H1021.54V110.027ZM965.764 111.027V135.927H967.764V111.027H965.764ZM966.764 136.927H1029.01V134.927H966.764V136.927ZM1028.01 135.927V180H1030.01V135.927H1028.01ZM1029.01 179H911.486V181H1029.01V179ZM912.486 180V3.708H910.486V180H912.486ZM911.486 4.708H1029.01V2.708H911.486V4.708ZM1028.01 3.708V47.781H1030.01V3.708H1028.01ZM1029.01 46.781H966.764V48.781H1029.01V46.781ZM1218.17 72.183H1219.17V71.183H1218.17V72.183ZM1218.17 117.75V118.75H1219.17V117.75H1218.17ZM1102.14 117.75H1101.14V118.75H1102.14V117.75ZM1102.14 72.183V71.183H1101.14V72.183H1102.14ZM1217.17 72.183V117.75H1219.17V72.183H1217.17ZM1218.17 116.75H1102.14V118.75H1218.17V116.75ZM1103.14 117.75V72.183H1101.14V117.75H1103.14ZM1102.14 73.183H1218.17V71.183H1102.14V73.183Z" fill="#E0E0E0" fill-opacity="0.4"/>
</svg>
