<svg width="615" height="182" viewBox="0 0 615 182" fill="none" xmlns="http://www.w3.org/2000/svg">
<path d="M147.987 3.708H148.987V2.708H147.987V3.708ZM147.987 47.532V48.532H148.987V47.532H147.987ZM101.175 47.532V46.532H100.175V47.532H101.175ZM101.175 180V181H102.175V180H101.175ZM45.8965 180H44.8965V181H45.8965V180ZM45.8965 47.532H46.8965V46.532H45.8965V47.532ZM-0.41748 47.532H-1.41748V48.532H-0.41748V47.532ZM-0.41748 3.708V2.708H-1.41748V3.708H-0.41748ZM146.987 3.708V47.532H148.987V3.708H146.987ZM147.987 46.532H101.175V48.532H147.987V46.532ZM100.175 47.532V180H102.175V47.532H100.175ZM101.175 179H45.8965V181H101.175V179ZM46.8965 180V47.532H44.8965V180H46.8965ZM45.8965 46.532H-0.41748V48.532H45.8965V46.532ZM0.58252 47.532V3.708H-1.41748V47.532H0.58252ZM-0.41748 4.708H147.987V2.708H-0.41748V4.708ZM262.828 170.04L262.335 170.91L262.34 170.913L262.828 170.04ZM229.96 137.67L229.099 138.178L229.96 137.67ZM262.828 12.423L263.313 13.2977L263.316 13.2957L262.828 12.423ZM354.211 12.423L353.718 13.2932L353.726 13.2976L354.211 12.423ZM386.83 44.544L385.964 45.0446L385.969 45.0524L386.83 44.544ZM386.83 137.67L385.969 137.162L385.964 137.169L386.83 137.67ZM353.962 170.04L353.474 169.167L353.469 169.17L353.962 170.04ZM334.042 119.742L334.801 120.393L334.809 120.384L334.042 119.742ZM334.042 62.472L333.275 63.114L333.283 63.1228L334.042 62.472ZM282.997 62.472L283.756 63.1228L283.764 63.1139L282.997 62.472ZM282.997 119.742L282.23 120.384L282.238 120.393L282.997 119.742ZM308.644 180.743C292.208 180.743 277.105 176.883 263.316 169.167L262.34 170.913C276.439 178.801 291.88 182.743 308.644 182.743V180.743ZM263.321 169.17C249.697 161.455 238.867 150.791 230.821 137.162L229.099 138.178C237.321 152.105 248.403 163.021 262.335 170.91L263.321 169.17ZM230.821 137.162C222.785 123.55 218.759 108.207 218.759 91.107H216.759C216.759 108.535 220.867 124.234 229.099 138.178L230.821 137.162ZM218.759 91.107C218.759 74.0072 222.785 58.6643 230.821 45.0524L229.099 44.0356C220.867 57.9797 216.759 73.6788 216.759 91.107H218.759ZM230.821 45.0524C238.866 31.4253 249.693 20.8459 263.313 13.2976L262.343 11.5483C248.407 19.2721 237.322 30.1067 229.099 44.0356L230.821 45.0524ZM263.316 13.2957C277.105 5.58047 292.208 1.71999 308.644 1.71999V-0.280006C291.88 -0.280006 276.439 3.66151 262.34 11.5503L263.316 13.2957ZM308.644 1.71999C325.08 1.71999 340.098 5.58044 353.718 13.2932L354.704 11.5528C340.768 3.66154 325.408 -0.280006 308.644 -0.280006V1.71999ZM353.726 13.2976C367.344 20.8448 378.086 31.4218 385.964 45.0446L387.696 44.0434C379.638 30.1102 368.634 19.2731 354.696 11.5483L353.726 13.2976ZM385.969 45.0524C394.005 58.6643 398.031 74.0072 398.031 91.107H400.031C400.031 73.6788 395.923 57.9797 387.691 44.0356L385.969 45.0524ZM398.031 91.107C398.031 108.207 394.005 123.55 385.969 137.162L387.691 138.178C395.923 124.234 400.031 108.535 400.031 91.107H398.031ZM385.964 137.169C378.087 150.791 367.261 161.453 353.474 169.167L354.45 170.913C368.551 163.023 379.637 152.105 387.696 138.171L385.964 137.169ZM353.469 169.17C339.847 176.883 324.912 180.743 308.644 180.743V182.743C325.244 182.743 340.521 178.801 354.455 170.91L353.469 169.17ZM308.644 131.2C319.83 131.2 328.598 127.63 334.801 120.393L333.283 119.091C327.534 125.798 319.37 129.2 308.644 129.2V131.2ZM334.809 120.384C340.974 113.02 344.006 103.226 344.006 91.107H342.006C342.006 102.892 339.062 112.188 333.275 119.1L334.809 120.384ZM344.006 91.107C344.006 78.8277 340.977 69.0256 334.801 61.8212L333.283 63.1228C339.06 69.8624 342.006 79.1503 342.006 91.107H344.006ZM334.809 61.8301C328.609 54.4241 319.838 50.765 308.644 50.765V52.765C319.362 52.765 327.524 56.2439 333.275 63.1139L334.809 61.8301ZM308.644 50.765C297.29 50.765 288.434 54.4205 282.23 61.8301L283.764 63.1139C289.512 56.2475 297.754 52.765 308.644 52.765V50.765ZM282.238 61.8212C276.063 69.0256 273.033 78.8277 273.033 91.107H275.033C275.033 79.1503 277.979 69.8624 283.756 63.1228L282.238 61.8212ZM273.033 91.107C273.033 103.226 276.065 113.02 282.23 120.384L283.764 119.1C277.977 112.188 275.033 102.892 275.033 91.107H273.033ZM282.238 120.393C288.444 127.633 297.298 131.2 308.644 131.2V129.2C297.746 129.2 289.502 125.795 283.756 119.091L282.238 120.393ZM495.416 167.052L494.825 167.859L494.836 167.867L495.416 167.052ZM473.255 123.477V122.477H472.192L472.256 123.538L473.255 123.477ZM532.018 123.477L533.015 123.395L532.94 122.477H532.018V123.477ZM552.934 136.674L553.489 137.506L553.496 137.501L553.504 137.496L552.934 136.674ZM549.448 119.991L548.939 120.851L548.951 120.858L548.963 120.865L549.448 119.991ZM528.532 111.027L528.2 111.97L528.201 111.971L528.532 111.027ZM500.396 99.324L499.932 100.21L499.94 100.214L500.396 99.324ZM481.471 82.641L482.28 82.0528L481.471 82.641ZM473.752 54.504L474.752 54.5185L474.752 54.5112V54.504H473.752ZM482.468 25.371L481.662 24.7789L481.659 24.7818L482.468 25.371ZM506.62 6.94498L506.246 6.01753L506.241 6.01968L506.62 6.94498ZM592.526 15.66L591.906 16.4449L591.911 16.4488L592.526 15.66ZM612.694 57.741V58.741H613.732L613.694 57.7043L612.694 57.741ZM553.183 57.741L552.184 57.7743L552.216 58.741H553.183V57.741ZM535.255 46.287L535.963 46.9941L535.981 46.9755L535.999 46.956L535.255 46.287ZM539.489 62.721L538.964 63.5726L538.983 63.5843L539.003 63.5952L539.489 62.721ZM560.653 71.934L560.299 72.869L560.304 72.8709L560.653 71.934ZM588.043 83.886L587.572 84.7678L587.58 84.7722L588.043 83.886ZM606.968 99.822L606.179 100.437L606.968 99.822ZM606.968 154.602L607.815 155.134L607.819 155.126L606.968 154.602ZM583.81 174.522L583.381 173.619L583.81 174.522ZM547.705 180.743C526.779 180.743 509.566 175.884 495.995 166.237L494.836 167.867C508.821 177.808 526.468 182.743 547.705 182.743V180.743ZM496.006 166.245C482.668 156.486 475.399 142.254 474.253 123.416L472.256 123.538C473.434 142.88 480.939 157.698 494.825 167.859L496.006 166.245ZM473.255 124.477H532.018V122.477H473.255V124.477ZM531.022 123.559C531.446 128.734 532.814 132.775 535.254 135.532C537.723 138.321 541.175 139.666 545.464 139.666V137.666C541.62 137.666 538.764 136.48 536.751 134.206C534.709 131.899 533.421 128.346 533.015 123.395L531.022 123.559ZM545.464 139.666C548.601 139.666 551.296 138.968 553.489 137.506L552.38 135.842C550.589 137.036 548.304 137.666 545.464 137.666V139.666ZM553.504 137.496C555.972 135.787 557.172 133.214 557.172 129.951H555.172C555.172 132.664 554.213 134.573 552.365 135.852L553.504 137.496ZM557.172 129.951C557.172 125.347 554.646 121.734 549.934 119.117L548.963 120.865C553.215 123.228 555.172 126.255 555.172 129.951H557.172ZM549.958 119.131C545.389 116.423 538.342 113.409 528.864 110.083L528.201 111.971C537.647 115.285 544.544 118.247 548.939 120.851L549.958 119.131ZM528.865 110.084C517.603 106.109 508.268 102.225 500.851 98.4336L499.94 100.214C507.463 104.059 516.886 107.977 528.2 111.97L528.865 110.084ZM500.859 98.4378C493.704 94.6978 487.51 89.2443 482.28 82.0528L480.663 83.2292C486.057 90.6457 492.479 96.3142 499.932 100.21L500.859 98.4378ZM482.28 82.0528C477.126 74.9659 474.589 65.8148 474.752 54.5185L472.753 54.4895C472.584 66.1012 475.193 75.7081 480.663 83.2292L482.28 82.0528ZM474.752 54.504C474.752 43.2263 477.61 33.7305 483.276 25.9602L481.659 24.7818C475.705 32.9475 472.752 42.8736 472.752 54.504H474.752ZM483.273 25.9631C489.131 17.9897 497.029 11.9566 507 7.87029L506.241 6.01968C495.96 10.2333 487.756 16.4843 481.662 24.7789L483.273 25.9631ZM506.994 7.87243C517.151 3.77706 528.558 1.71999 541.231 1.71999V-0.280006C528.341 -0.280006 516.674 1.81292 506.246 6.01755L506.994 7.87243ZM541.231 1.71999C562.663 1.71999 579.518 6.66531 591.906 16.4449L593.145 14.8751C580.301 4.73467 562.96 -0.280006 541.231 -0.280006V1.71999ZM591.911 16.4488C604.431 26.2045 611.041 39.9399 611.695 57.7777L613.694 57.7043C613.02 39.3541 606.184 25.0355 593.14 14.8712L591.911 16.4488ZM612.694 56.741H553.183V58.741H612.694V56.741ZM554.183 57.7077C554.013 52.609 552.735 48.721 550.129 46.3012L548.768 47.7668C550.81 49.663 552.022 52.913 552.184 57.7743L554.183 57.7077ZM550.129 46.3012C547.611 43.9628 544.542 42.797 540.982 42.797V44.797C544.063 44.797 546.638 45.7892 548.768 47.7668L550.129 46.3012ZM540.982 42.797C538.388 42.797 536.204 43.7378 534.512 45.618L535.999 46.956C537.295 45.5162 538.929 44.797 540.982 44.797V42.797ZM534.548 45.5799C532.811 47.3177 532.015 49.7657 532.015 52.761H534.015C534.015 50.1123 534.712 48.2443 535.963 46.9941L534.548 45.5799ZM532.015 52.761C532.015 57.1881 534.445 60.7913 538.964 63.5726L540.013 61.8693C535.9 59.3387 534.015 56.3019 534.015 52.761H532.015ZM539.003 63.5952C543.551 66.1217 550.661 69.2133 560.299 72.869L561.008 70.999C551.39 67.3507 544.39 64.3003 539.974 61.8468L539.003 63.5952ZM560.304 72.8709C571.401 77.0118 580.487 80.9781 587.572 84.7678L588.515 83.0042C581.324 79.1579 572.15 75.1562 561.003 70.9971L560.304 72.8709ZM587.58 84.7722C594.752 88.521 600.951 93.7383 606.179 100.437L607.756 99.2067C602.36 92.2937 595.943 86.887 588.507 82.9998L587.58 84.7722ZM606.179 100.437C611.329 107.035 613.935 115.356 613.935 125.469H615.935C615.935 114.998 613.23 106.221 607.756 99.2067L606.179 100.437ZM613.935 125.469C613.935 136.086 611.324 145.614 606.116 154.078L607.819 155.126C613.234 146.326 615.935 136.432 615.935 125.469H613.935ZM606.12 154.071C600.922 162.356 593.357 168.876 583.381 173.619L584.24 175.425C594.516 170.54 602.39 163.78 607.815 155.133L606.12 154.071ZM583.381 173.619C573.418 178.355 561.536 180.743 547.705 180.743V182.743C561.763 182.743 573.951 180.316 584.24 175.425L583.381 173.619Z" fill="#E0E0E0" fill-opacity="0.4"/>
</svg>
