<svg width="1920" height="177" viewBox="0 0 1920 177" fill="none" xmlns="http://www.w3.org/2000/svg">
<path d="M96.6654 0.708H97.6654V-0.292H96.6654V0.708ZM96.6654 44.532V45.532H97.6654V44.532H96.6654ZM49.8534 44.532V43.532H48.8534V44.532H49.8534ZM49.8534 177V178H50.8534V177H49.8534ZM-5.42458 177H-6.42458V178H-5.42458V177ZM-5.42458 44.532H-4.42458V43.532H-5.42458V44.532ZM-51.7386 44.532H-52.7386V45.532H-51.7386V44.532ZM-51.7386 0.708V-0.292H-52.7386V0.708H-51.7386ZM95.6654 0.708V44.532H97.6654V0.708H95.6654ZM96.6654 43.532H49.8534V45.532H96.6654V43.532ZM48.8534 44.532V177H50.8534V44.532H48.8534ZM49.8534 176H-5.42458V178H49.8534V176ZM-4.42458 177V44.532H-6.42458V177H-4.42458ZM-5.42458 43.532H-51.7386V45.532H-5.42458V43.532ZM-50.7386 44.532V0.708H-52.7386V44.532H-50.7386ZM-51.7386 1.708H96.6654V-0.292H-51.7386V1.708ZM284.464 150.357L285.414 150.046L285.189 149.357H284.464V150.357ZM225.7 150.357V149.357H224.975L224.75 150.046L225.7 150.357ZM216.985 177V178H217.71L217.935 177.311L216.985 177ZM158.968 177L158.029 176.656L157.537 178H158.968V177ZM223.459 0.708V-0.292H222.76L222.52 0.364449L223.459 0.708ZM287.203 0.708L288.143 0.365616L287.903 -0.292H287.203V0.708ZM351.445 177V178H352.874L352.385 176.658L351.445 177ZM293.179 177L292.229 177.311L292.454 178H293.179V177ZM271.018 108.774V109.774H272.394L271.969 108.465L271.018 108.774ZM255.082 59.721L256.033 59.412L255.082 56.4845L254.131 59.412L255.082 59.721ZM239.146 108.774L238.195 108.465L237.77 109.774H239.146V108.774ZM284.464 149.357H225.7V151.357H284.464V149.357ZM224.75 150.046L216.035 176.689L217.935 177.311L226.65 150.668L224.75 150.046ZM216.985 176H158.968V178H216.985V176ZM159.907 177.344L224.398 1.05155L222.52 0.364449L158.029 176.656L159.907 177.344ZM223.459 1.708H287.203V-0.292H223.459V1.708ZM286.263 1.05038L350.505 177.342L352.385 176.658L288.143 0.365616L286.263 1.05038ZM351.445 176H293.179V178H351.445V176ZM294.129 176.689L285.414 150.046L283.514 150.668L292.229 177.311L294.129 176.689ZM271.969 108.465L256.033 59.412L254.131 60.03L270.067 109.083L271.969 108.465ZM254.131 59.412L238.195 108.465L240.097 109.083L256.033 60.03L254.131 59.412ZM239.146 109.774H271.018V107.774H239.146V109.774ZM479.042 135.168H478.042V136.168H479.042V135.168ZM532.328 135.168H533.328V134.168H532.328V135.168ZM532.328 177V178H533.328V177H532.328ZM423.764 177H422.764V178H423.764V177ZM423.764 0.708V-0.292H422.764V0.708H423.764ZM479.042 0.708H480.042V-0.292H479.042V0.708ZM479.042 136.168H532.328V134.168H479.042V136.168ZM531.328 135.168V177H533.328V135.168H531.328ZM532.328 176H423.764V178H532.328V176ZM424.764 177V0.708H422.764V177H424.764ZM423.764 1.708H479.042V-0.292H423.764V1.708ZM478.042 0.708V135.168H480.042V0.708H478.042ZM664.761 0.708H665.761V-0.292H664.761V0.708ZM664.761 177V178H665.761V177H664.761ZM609.483 177H608.483V178H609.483V177ZM609.483 0.708V-0.292H608.483V0.708H609.483ZM663.761 0.708V177H665.761V0.708H663.761ZM664.761 176H609.483V178H664.761V176ZM610.483 177V0.708H608.483V177H610.483ZM609.483 1.708H664.761V-0.292H609.483V1.708ZM887.931 0.708H888.931V-0.292H887.931V0.708ZM887.931 44.532V45.532H888.931V44.532H887.931ZM841.119 44.532V43.532H840.119V44.532H841.119ZM841.119 177V178H842.119V177H841.119ZM785.841 177H784.841V178H785.841V177ZM785.841 44.532H786.841V43.532H785.841V44.532ZM739.527 44.532H738.527V45.532H739.527V44.532ZM739.527 0.708V-0.292H738.527V0.708H739.527ZM886.931 0.708V44.532H888.931V0.708H886.931ZM887.931 43.532H841.119V45.532H887.931V43.532ZM840.119 44.532V177H842.119V44.532H840.119ZM841.119 176H785.841V178H841.119V176ZM786.841 177V44.532H784.841V177H786.841ZM785.841 43.532H739.527V45.532H785.841V43.532ZM740.527 44.532V0.708H738.527V44.532H740.527ZM739.527 1.708H887.931V-0.292H739.527V1.708ZM1075.73 150.357L1076.68 150.046L1076.45 149.357H1075.73V150.357ZM1016.97 150.357V149.357H1016.24L1016.02 150.046L1016.97 150.357ZM1008.25 177V178H1008.98L1009.2 177.311L1008.25 177ZM950.234 177L949.294 176.656L948.803 178H950.234V177ZM1014.72 0.708V-0.292H1014.03L1013.79 0.364449L1014.72 0.708ZM1078.47 0.708L1079.41 0.365616L1079.17 -0.292H1078.47V0.708ZM1142.71 177V178H1144.14L1143.65 176.658L1142.71 177ZM1084.44 177L1083.49 177.311L1083.72 178H1084.44V177ZM1062.28 108.774V109.774H1063.66L1063.23 108.465L1062.28 108.774ZM1046.35 59.721L1047.3 59.412L1046.35 56.4845L1045.4 59.412L1046.35 59.721ZM1030.41 108.774L1029.46 108.465L1029.04 109.774H1030.41V108.774ZM1075.73 149.357H1016.97V151.357H1075.73V149.357ZM1016.02 150.046L1007.3 176.689L1009.2 177.311L1017.92 150.668L1016.02 150.046ZM1008.25 176H950.234V178H1008.25V176ZM951.173 177.344L1015.66 1.05155L1013.79 0.364449L949.294 176.656L951.173 177.344ZM1014.72 1.708H1078.47V-0.292H1014.72V1.708ZM1077.53 1.05038L1141.77 177.342L1143.65 176.658L1079.41 0.365616L1077.53 1.05038ZM1142.71 176H1084.44V178H1142.71V176ZM1085.4 176.689L1076.68 150.046L1074.78 150.668L1083.49 177.311L1085.4 176.689ZM1063.23 108.465L1047.3 59.412L1045.4 60.03L1061.33 109.083L1063.23 108.465ZM1045.4 59.412L1029.46 108.465L1031.36 109.083L1047.3 60.03L1045.4 59.412ZM1030.41 109.774H1062.28V107.774H1030.41V109.774ZM1430.15 150.357L1431.1 150.046L1430.87 149.357H1430.15V150.357ZM1371.38 150.357V149.357H1370.66L1370.43 150.046L1371.38 150.357ZM1362.67 177V178H1363.39L1363.62 177.311L1362.67 177ZM1304.65 177L1303.71 176.656L1303.22 178H1304.65V177ZM1369.14 0.708V-0.292H1368.44L1368.2 0.364449L1369.14 0.708ZM1432.88 0.708L1433.82 0.365616L1433.58 -0.292H1432.88V0.708ZM1497.13 177V178H1498.56L1498.07 176.658L1497.13 177ZM1438.86 177L1437.91 177.311L1438.14 178H1438.86V177ZM1416.7 108.774V109.774H1418.08L1417.65 108.465L1416.7 108.774ZM1400.76 59.721L1401.71 59.412L1400.76 56.4845L1399.81 59.412L1400.76 59.721ZM1384.83 108.774L1383.88 108.465L1383.45 109.774H1384.83V108.774ZM1430.15 149.357H1371.38V151.357H1430.15V149.357ZM1370.43 150.046L1361.72 176.689L1363.62 177.311L1372.33 150.668L1370.43 150.046ZM1362.67 176H1304.65V178H1362.67V176ZM1305.59 177.344L1370.08 1.05155L1368.2 0.364449L1303.71 176.656L1305.59 177.344ZM1369.14 1.708H1432.88V-0.292H1369.14V1.708ZM1431.95 1.05038L1496.19 177.342L1498.07 176.658L1433.82 0.365616L1431.95 1.05038ZM1497.13 176H1438.86V178H1497.13V176ZM1439.81 176.689L1431.1 150.046L1429.2 150.668L1437.91 177.311L1439.81 176.689ZM1417.65 108.465L1401.71 59.412L1399.81 60.03L1415.75 109.083L1417.65 108.465ZM1399.81 59.412L1383.88 108.465L1385.78 109.083L1401.71 60.03L1399.81 59.412ZM1384.83 109.774H1416.7V107.774H1384.83V109.774ZM1738.77 0.708L1739.65 1.166L1740.41 -0.292H1738.77V0.708ZM1675.52 123.465L1674.63 123.007L1674.52 123.223V123.465H1675.52ZM1675.52 177V178H1676.52V177H1675.52ZM1620.24 177H1619.24V178H1620.24V177ZM1620.24 123.465H1621.24V123.223L1621.13 123.007L1620.24 123.465ZM1557 0.708V-0.292H1555.36L1556.11 1.166L1557 0.708ZM1620.24 0.708L1621.15 0.297485L1620.89 -0.292H1620.24V0.708ZM1648.38 63.207L1647.47 63.6175L1648.38 65.643L1649.29 63.6175L1648.38 63.207ZM1676.52 0.708V-0.292H1675.87L1675.6 0.297485L1676.52 0.708ZM1737.88 0.25L1674.63 123.007L1676.41 123.923L1739.65 1.166L1737.88 0.25ZM1674.52 123.465V177H1676.52V123.465H1674.52ZM1675.52 176H1620.24V178H1675.52V176ZM1621.24 177V123.465H1619.24V177H1621.24ZM1621.13 123.007L1557.88 0.25L1556.11 1.166L1619.35 123.923L1621.13 123.007ZM1557 1.708H1620.24V-0.292H1557V1.708ZM1619.33 1.11852L1647.47 63.6175L1649.29 62.7965L1621.15 0.297485L1619.33 1.11852ZM1649.29 63.6175L1677.43 1.11852L1675.6 0.297485L1647.47 62.7965L1649.29 63.6175ZM1676.52 1.708H1738.77V-0.292H1676.52V1.708ZM1924.14 150.357L1925.09 150.046L1924.86 149.357H1924.14V150.357ZM1865.37 150.357V149.357H1864.65L1864.42 150.046L1865.37 150.357ZM1856.66 177V178H1857.38L1857.61 177.311L1856.66 177ZM1798.64 177L1797.7 176.656L1797.21 178H1798.64V177ZM1863.13 0.708V-0.292H1862.43L1862.19 0.364449L1863.13 0.708ZM1926.88 0.708L1927.82 0.365616L1927.58 -0.292H1926.88V0.708ZM1991.12 177V178H1992.55L1992.06 176.658L1991.12 177ZM1932.85 177L1931.9 177.311L1932.13 178H1932.85V177ZM1910.69 108.774V109.774H1912.07L1911.64 108.465L1910.69 108.774ZM1894.76 59.721L1895.71 59.412L1894.76 56.4845L1893.81 59.412L1894.76 59.721ZM1878.82 108.774L1877.87 108.465L1877.44 109.774H1878.82V108.774ZM1924.14 149.357H1865.37V151.357H1924.14V149.357ZM1864.42 150.046L1855.71 176.689L1857.61 177.311L1866.33 150.668L1864.42 150.046ZM1856.66 176H1798.64V178H1856.66V176ZM1799.58 177.344L1864.07 1.05155L1862.19 0.364449L1797.7 176.656L1799.58 177.344ZM1863.13 1.708H1926.88V-0.292H1863.13V1.708ZM1925.94 1.05038L1990.18 177.342L1992.06 176.658L1927.82 0.365616L1925.94 1.05038ZM1991.12 176H1932.85V178H1991.12V176ZM1933.8 176.689L1925.09 150.046L1923.19 150.668L1931.9 177.311L1933.8 176.689ZM1911.64 108.465L1895.71 59.412L1893.81 60.03L1909.74 109.083L1911.64 108.465ZM1893.81 59.412L1877.87 108.465L1879.77 109.083L1895.71 60.03L1893.81 59.412ZM1878.82 109.774H1910.69V107.774H1878.82V109.774Z" fill="#E0E0E0" fill-opacity="0.4"/>
</svg>
