<svg width="541" height="404" viewBox="0 0 541 404" fill="none" xmlns="http://www.w3.org/2000/svg">
<rect width="541" height="404" fill="#371E21"/>
<g filter="url(#filter0_d_620_170)">
<path d="M170.39 158H171.95V206C171.95 218.56 169.47 227.8 164.51 233.72C159.55 239.56 153.07 242.48 145.07 242.48C140.03 242.48 135.75 242.04 132.23 241.16C128.71 240.2 125.39 238.48 122.27 236C115.87 231.04 112.67 221.04 112.67 206V158H122.63V205.88C122.63 220.44 124.83 230.16 129.23 235.04C131.47 237.44 133.79 239.08 136.19 239.96C138.67 240.84 141.63 241.28 145.07 241.28C152.75 241.28 158.87 238.48 163.43 232.88C168.07 227.2 170.39 218.2 170.39 205.88V158ZM188.138 159.2V158H209.498V159.2H203.618V240.8H209.498V242H188.138V240.8H193.658V159.2H188.138ZM236.301 158V211.04L275.061 158L276.021 158.84L254.541 188.12L286.461 242H275.301L248.421 196.52L236.301 213.2V242H226.341V158H236.301ZM348.092 158C349.612 159.52 350.372 161.48 350.372 163.88C350.372 165.88 349.932 167.92 349.052 170L327.572 213.56V242H317.612V216.2L293.612 158H303.812L326.732 212.12L347.612 170C348.492 168 348.932 165.92 348.932 163.76C348.932 161.6 348.332 159.92 347.132 158.72L348.092 158ZM356.363 202.04C356.363 187.48 359.883 176.44 366.923 168.92C374.043 161.32 383.163 157.52 394.283 157.52C405.403 157.52 414.243 160.8 420.803 167.36C427.443 173.92 430.763 184.4 430.763 198.8C430.763 213.2 427.243 224.08 420.203 231.44C413.163 238.8 403.763 242.48 392.003 242.48C381.843 242.48 373.523 239.56 367.043 233.72C363.683 230.68 361.043 226.48 359.123 221.12C357.283 215.68 356.363 209.32 356.363 202.04ZM393.923 158.72C385.843 158.72 379.203 162.32 374.003 169.52C368.883 176.72 366.323 187.28 366.323 201.2C366.323 215.12 368.763 225.28 373.643 231.68C378.523 238.08 385.003 241.28 393.083 241.28C401.243 241.28 407.883 237.68 413.003 230.48C418.203 223.2 420.803 212.68 420.803 198.92C420.803 185.08 418.323 174.92 413.363 168.44C408.483 161.96 402.003 158.72 393.923 158.72Z" fill="#DDC9D0"/>
</g>
<defs>
<filter id="filter0_d_620_170" x="108.67" y="157.52" width="326.094" height="92.96" filterUnits="userSpaceOnUse" color-interpolation-filters="sRGB">
<feFlood flood-opacity="0" result="BackgroundImageFix"/>
<feColorMatrix in="SourceAlpha" type="matrix" values="0 0 0 0 0 0 0 0 0 0 0 0 0 0 0 0 0 0 127 0" result="hardAlpha"/>
<feOffset dy="4"/>
<feGaussianBlur stdDeviation="2"/>
<feComposite in2="hardAlpha" operator="out"/>
<feColorMatrix type="matrix" values="0 0 0 0 0.32549 0 0 0 0 0.207843 0 0 0 0 0.227451 0 0 0 0.71 0"/>
<feBlend mode="normal" in2="BackgroundImageFix" result="effect1_dropShadow_620_170"/>
<feBlend mode="normal" in="SourceGraphic" in2="effect1_dropShadow_620_170" result="shape"/>
</filter>
</defs>
</svg>
