<svg width="100" height="100" viewBox="0 0 100 100" fill="none" xmlns="http://www.w3.org/2000/svg">
<rect x="0.5" y="0.5" width="99" height="99" rx="29.5" stroke="#E4E4E4"/>
<path d="M59.7603 72V65.6944C59.8427 64.6468 59.7011 63.5936 59.345 62.6049C58.989 61.6162 58.4265 60.7146 57.695 59.9601C64.5938 59.1912 71.8441 56.5767 71.8441 44.5807C71.8435 41.5133 70.6636 38.5634 68.5485 36.3418C69.55 33.6581 69.4792 30.6917 68.3507 28.0589C68.3507 28.0589 65.7582 27.2899 59.7603 31.3105C54.7246 29.9457 49.4165 29.9457 44.3809 31.3105C38.3829 27.2899 35.7904 28.0589 35.7904 28.0589C34.6619 30.6917 34.5911 33.6581 35.5926 36.3418C33.4618 38.5799 32.2806 41.5564 32.297 44.6466C32.297 56.5547 39.5473 59.1692 46.4461 60.026C45.7233 60.773 45.1658 61.6637 44.81 62.6404C44.4541 63.617 44.3079 64.6576 44.3809 65.6944V72" stroke="#E4E4E4" stroke-width="1.81616" stroke-linecap="round" stroke-linejoin="round"/>
<path d="M44.3794 67.6058C37.7882 69.7436 32.2956 67.6058 29 61.0146" stroke="#E4E4E4" stroke-width="1.81616" stroke-linecap="round" stroke-linejoin="round"/>
</svg>
