<svg width="68" height="52" viewBox="0 0 68 52" fill="none" xmlns="http://www.w3.org/2000/svg">
<path d="M63.5556 0.666687H4.44445C3.32465 0.666687 2.25071 1.11153 1.45889 1.90335C0.667069 2.69517 0.222229 3.76911 0.222229 4.88891V47.1111C0.222229 48.2309 0.667069 49.3049 1.45889 50.0967C2.25071 50.8885 3.32465 51.3333 4.44445 51.3333H63.5556C64.6754 51.3333 65.7493 50.8885 66.5411 50.0967C67.333 49.3049 67.7778 48.2309 67.7778 47.1111V4.88891C67.7778 3.76911 67.333 2.69517 66.5411 1.90335C65.7493 1.11153 64.6754 0.666687 63.5556 0.666687ZM60.3045 47.1111H7.9489L22.7267 31.8267L19.6867 28.8922L4.44445 44.6622V8.0978L30.6856 34.2122C31.4767 34.9986 32.5468 35.44 33.6622 35.44C34.7777 35.44 35.8478 34.9986 36.6389 34.2122L63.5556 7.44335V44.3878L48.0178 28.85L45.0411 31.8267L60.3045 47.1111ZM7.21001 4.88891H60.1356L33.6622 31.2145L7.21001 4.88891Z" fill="#E4E4E4"/>
</svg>
