<svg width="96" height="86" viewBox="0 0 96 86" fill="none" xmlns="http://www.w3.org/2000/svg">
<path d="M18.0385 25.8572L48.077 45.8572L78.5385 25.8572" stroke="#E4E4E4" stroke-width="5" stroke-linecap="round" stroke-linejoin="round"/>
<path d="M3.03851 71.5714V14.4286C3.03851 11.3975 3.98672 8.49062 5.67455 6.34735C7.36238 4.20408 9.65156 3 12.0385 3H84.0385C86.4255 3 88.7146 4.20408 90.4025 6.34735C92.0903 8.49062 93.0385 11.3975 93.0385 14.4286V71.5714C93.0385 74.6025 92.0903 77.5094 90.4025 79.6526C88.7146 81.7959 86.4255 83 84.0385 83H12.0385C9.65156 83 7.36238 81.7959 5.67455 79.6526C3.98672 77.5094 3.03851 74.6025 3.03851 71.5714Z" stroke="#E4E4E4" stroke-width="5"/>
</svg>
