<svg width="65" height="70" viewBox="0 0 65 70" fill="none" xmlns="http://www.w3.org/2000/svg">
<path d="M60.6108 13.6472C63.4925 17.1052 64.9302 21.1395 64.9302 25.7502C64.9302 42.4606 55.4238 47.3595 46.4907 48.8003C47.6433 50.8175 47.9315 53.1228 47.9315 55.4281V67.2398C47.9315 68.6806 47.067 69.5451 45.9143 69.5451C45.6104 69.5494 45.3087 69.4927 45.0271 69.3783C44.7455 69.264 44.4896 69.0943 44.2747 68.8794C44.0598 68.6645 43.8901 68.4086 43.7758 68.127C43.6615 67.8454 43.6047 67.5437 43.609 67.2398V55.4281C43.7608 54.2205 43.6317 52.9941 43.2318 51.8445C42.832 50.6949 42.1721 49.6531 41.3037 48.8003L42.7445 45.0541C51.6777 43.9015 60.899 41.0198 60.899 25.462C60.899 21.7158 59.4582 18.2578 56.8647 15.3762L56.2883 13.074C57.3842 10.3128 57.4849 7.25636 56.5733 4.429C55.1357 4.714 52.254 5.2935 47.3583 8.7515L45.6262 9.0365C38.8203 7.30834 31.6904 7.30834 24.8845 9.0365L23.1523 8.7515C17.9717 5.58167 15.09 4.71717 13.646 4.71717C12.7815 7.59883 12.7815 10.7655 13.931 13.3622L13.3578 15.6643C10.4762 18.546 9.03533 22.2922 9.03533 25.7502C9.03533 41.0198 17.6803 44.1896 27.1867 45.3423L28.3393 49.0885C26.6103 50.8175 25.7458 53.1228 26.034 55.4281V67.528C26.0383 67.8319 25.9815 68.1336 25.8672 68.4152C25.7529 68.6968 25.5832 68.9527 25.3683 69.1676C25.1534 69.3825 24.8975 69.5521 24.6159 69.6665C24.3343 69.7808 24.0326 69.8376 23.7287 69.8333C23.4247 69.8376 23.1231 69.7808 22.8414 69.6665C22.5598 69.5521 22.304 69.3825 22.0891 69.1676C21.8741 68.9527 21.7045 68.6968 21.5901 68.4152C21.4758 68.1336 21.4191 67.8319 21.4233 67.528V60.9033C11.917 62.9205 8.17083 58.0216 5.28916 54.2786C3.84833 52.5496 2.69566 51.1088 1.25483 50.8206C0.969828 50.5325 0.102161 49.3798 0.390328 48.2271C0.678495 47.0745 1.83116 46.21 2.987 46.7863C5.86866 47.3626 7.5945 49.668 9.32033 51.6851C11.917 55.1431 14.5105 58.3098 22.2878 56.584V55.4313C22.0028 53.126 22.576 50.8206 23.7287 48.8035C15.0837 47.0745 5.001 42.1756 5.001 25.7533C5.001 21.1427 6.44183 17.1083 9.3235 13.6503C8.459 9.61916 8.74716 5.29667 10.188 1.83867L11.6288 0.686004C12.2052 0.397838 16.2395 -0.466662 24.59 4.71717C31.4944 2.9884 38.7186 2.9884 45.623 4.71717C53.6948 -0.757995 58.0173 0.103338 58.5937 0.394671L60.0345 1.54734C61.4753 5.58167 61.7635 9.616 60.6108 13.6472Z" fill="#E4E4E4"/>
</svg>
