<svg width="84" height="86" viewBox="0 0 84 86" fill="none" xmlns="http://www.w3.org/2000/svg">
<path d="M59.068 83V71.5354C59.2178 69.6306 58.9605 67.7157 58.313 65.918C57.6656 64.1204 56.6429 62.4812 55.313 61.1093C67.8562 59.7112 81.0385 54.9576 81.0385 33.1468C81.0375 27.5696 78.8922 22.2062 75.0466 18.1669C76.8675 13.2874 76.7388 7.89401 74.687 3.10703C74.687 3.10703 69.9734 1.7089 59.068 9.01911C49.9123 6.53772 40.2611 6.53772 31.1054 9.01911C20.2 1.7089 15.4864 3.10703 15.4864 3.10703C13.4346 7.89401 13.3058 13.2874 15.1268 18.1669C11.2525 22.2362 9.10499 27.648 9.13486 33.2666C9.13486 54.9176 22.3172 59.6712 34.8604 61.2292C33.5461 62.5872 32.5326 64.2068 31.8856 65.9825C31.2387 67.7581 30.9728 69.6501 31.1054 71.5354V83" stroke="#E4E4E4" stroke-width="5" stroke-linecap="round" stroke-linejoin="round"/>
<path d="M31.1054 75.0108C19.1214 78.8976 9.13479 75.0108 3.14282 63.0269" stroke="#E4E4E4" stroke-width="5" stroke-linecap="round" stroke-linejoin="round"/>
</svg>
