<svg width="86" height="86" viewBox="0 0 86 86" fill="none" xmlns="http://www.w3.org/2000/svg">
<path d="M20.9206 65.2222V34.1111M83.1428 25.2222V60.7778C83.1428 66.6715 80.8016 72.3238 76.6341 76.4913C72.4666 80.6587 66.8143 83 60.9206 83H25.365C19.4713 83 13.819 80.6587 9.65156 76.4913C5.48409 72.3238 3.14282 66.6715 3.14282 60.7778V25.2222C3.14282 19.3285 5.48409 13.6762 9.65156 9.50874C13.819 5.34126 19.4713 3 25.365 3H60.9206C66.8143 3 72.4666 5.34126 76.6341 9.50874C80.8016 13.6762 83.1428 19.3285 83.1428 25.2222Z" stroke="#E4E4E4" stroke-width="5" stroke-linecap="round" stroke-linejoin="round"/>
<path d="M38.6984 65.2223V50.7779M38.6984 50.7779V34.1112M38.6984 50.7779C38.6984 34.1112 65.365 34.1112 65.365 50.7779V65.2223M20.9206 20.8223L20.965 20.7734" stroke="#E4E4E4" stroke-width="5" stroke-linecap="round" stroke-linejoin="round"/>
</svg>
