<svg width="66" height="64" viewBox="0 0 66 64" fill="none" xmlns="http://www.w3.org/2000/svg">
<path d="M64.311 63.6098H50.9031C49.9546 63.6098 49.1882 62.8433 49.1882 61.8949V40.302C49.1882 32.8965 45.3685 32.8965 44.1082 32.8965C40.7173 32.8965 39.2751 35.5729 38.8074 36.7292C38.5865 37.249 38.4826 38.1324 38.4826 39.3667V61.908C38.4826 62.8565 37.7161 63.6229 36.7677 63.6229H23.3468C22.8921 63.6229 22.4504 63.4411 22.1256 63.1163C21.8008 62.7916 21.6189 62.3497 21.6319 61.895C21.6319 61.5312 21.8138 25.3222 21.6319 21.6194C21.6059 21.1517 21.7748 20.697 22.0996 20.3592C22.4245 20.0214 22.8662 19.8264 23.3468 19.8264H36.7677C37.7161 19.8264 38.4826 20.5929 38.4826 21.5414V22.5547C40.7433 20.541 44.0043 18.878 48.8633 18.878C59.6078 18.878 66.0259 26.3094 66.0259 38.7559V61.8949C66.0259 62.8433 65.2593 63.6098 64.311 63.6098ZM52.618 60.18L62.609 60.1797V38.7557C62.609 28.297 57.6071 22.3077 48.8763 22.3077C43.0429 22.3077 40.2106 25.218 38.4307 27.8813C38.2228 28.5829 37.5602 29.1027 36.7807 29.1027H36.6898C36.0661 29.1027 35.4944 28.7648 35.1957 28.2192C34.9619 27.7904 34.9099 27.2967 35.0658 26.842V23.2432H25.1008C25.1918 30.4019 25.1008 53.567 25.0748 60.167H35.0528V39.3535C35.0528 37.6256 35.2346 36.3783 35.6244 35.4299C37.1315 31.7012 40.3015 29.4536 44.0953 29.4536C49.5 29.4536 52.605 33.4032 52.605 40.289V60.1799H52.6182L52.618 60.18ZM15.9284 63.6095H2.50749C1.55906 63.6095 0.792583 62.8431 0.792583 61.8946V21.5412C0.792583 20.5928 1.55906 19.8263 2.50749 19.8263H15.9284C16.8768 19.8263 17.6433 20.5928 17.6433 21.5412V61.8947C17.6433 62.8431 16.8768 63.6097 15.9284 63.6097V63.6095ZM4.22252 60.1798H14.2134V23.2561H4.22258V60.1797L4.22252 60.1798ZM9.2244 17.7474L9.13339 17.7474C3.8456 17.7474 -6.10352e-05 14.0836 -6.10352e-05 9.04266C-6.10352e-05 4.01473 3.91057 0.350891 9.31528 0.350891C14.6291 0.350891 18.4228 3.9107 18.5268 9.00366C18.5268 14.0836 14.6162 17.7474 9.2244 17.7474V17.7474ZM9.31528 3.79385C5.7944 3.79385 3.42987 5.91159 3.42987 9.05574C3.42987 12.1478 5.76849 14.3175 9.13346 14.3175H9.22434C12.7323 14.3175 15.0968 12.1998 15.0968 9.05568C15.0318 5.87259 12.7582 3.79385 9.31528 3.79385Z" fill="#E4E4E4"/>
</svg>
