<svg width="80" height="80" viewBox="0 0 80 80" fill="none" xmlns="http://www.w3.org/2000/svg">
<path d="M70.1169 17.5233C73.1502 21.1633 74.6636 25.41 74.6636 30.2633C74.6636 47.8533 64.6569 53.01 55.2536 54.5267C56.4669 56.65 56.7702 59.0767 56.7702 61.5033V73.9366C56.7702 75.4533 55.8602 76.3633 54.6469 76.3633C54.327 76.3678 54.0094 76.3081 53.713 76.1877C53.4165 76.0674 53.1472 75.8888 52.921 75.6626C52.6947 75.4363 52.5162 75.167 52.3958 74.8706C52.2754 74.5741 52.2157 74.2566 52.2202 73.9366V61.5033C52.38 60.2321 52.2441 58.9412 51.8232 57.731C51.4023 56.5209 50.7077 55.4243 49.7936 54.5267L51.3102 50.5833C60.7136 49.37 70.4202 46.3367 70.4202 29.96C70.4202 26.0167 68.9036 22.3767 66.1736 19.3433L65.5669 16.92C66.7204 14.0135 66.8265 10.7962 65.8669 7.81999C64.3536 8.11999 61.3202 8.72999 56.1669 12.37L54.3436 12.67C47.1795 10.8509 39.6743 10.8509 32.5102 12.67L30.6869 12.37C25.2336 9.03332 22.2002 8.12332 20.6802 8.12332C19.7702 11.1567 19.7702 14.49 20.9802 17.2233L20.3769 19.6467C17.3436 22.68 15.8269 26.6233 15.8269 30.2633C15.8269 46.3367 24.9269 49.6733 34.9336 50.8867L36.1469 54.83C34.3269 56.65 33.4169 59.0767 33.7202 61.5033V74.24C33.7247 74.5599 33.665 74.8775 33.5447 75.1739C33.4243 75.4704 33.2457 75.7397 33.0195 75.9659C32.7932 76.1921 32.5239 76.3707 32.2275 76.4911C31.931 76.6114 31.6135 76.6711 31.2936 76.6666C30.9736 76.6711 30.6561 76.6114 30.3596 76.4911C30.0632 76.3707 29.7939 76.1921 29.5677 75.9659C29.3414 75.7397 29.1628 75.4704 29.0425 75.1739C28.9221 74.8775 28.8624 74.5599 28.8669 74.24V67.2667C18.8602 69.39 14.9169 64.2333 11.8836 60.2933C10.3669 58.4733 9.15357 56.9567 7.6369 56.6533C7.3369 56.35 6.42357 55.1367 6.7269 53.9233C7.03023 52.71 8.24357 51.8 9.46023 52.4067C12.4936 53.0133 14.3102 55.44 16.1269 57.5633C18.8602 61.2033 21.5902 64.5367 29.7769 62.72V61.5066C29.4769 59.08 30.0802 56.6533 31.2936 54.53C22.1936 52.71 11.5802 47.5533 11.5802 30.2667C11.5802 25.4133 13.0969 21.1667 16.1302 17.5267C15.2202 13.2833 15.5236 8.73332 17.0402 5.09332L18.5569 3.87999C19.1636 3.57666 23.4102 2.66666 32.2002 8.12332C39.4681 6.30357 47.0724 6.30357 54.3402 8.12332C62.8369 2.35999 67.3869 3.26666 67.9936 3.57333L69.5102 4.78666C71.0269 9.03332 71.3302 13.28 70.1169 17.5233Z" fill="#E0E0E0"/>
</svg>
