<svg width="85" height="85" viewBox="0 0 85 85" fill="none" xmlns="http://www.w3.org/2000/svg">
<path d="M26.5624 31.875H12.3957C11.9261 31.875 11.4757 32.0615 11.1436 32.3936C10.8115 32.7257 10.6249 33.1761 10.6249 33.6458V76.1458C10.6249 76.6155 10.8115 77.0659 11.1436 77.398C11.4757 77.7301 11.9261 77.9166 12.3957 77.9166H26.5624C27.0321 77.9166 27.4825 77.7301 27.8146 77.398C28.1467 77.0659 28.3332 76.6155 28.3332 76.1458V33.6458C28.3332 33.1761 28.1467 32.7257 27.8146 32.3936C27.4825 32.0615 27.0321 31.875 26.5624 31.875ZM24.7916 74.375H14.1666V35.4166H24.7916V74.375ZM63.7499 31.875C59.9072 31.875 56.1707 33.1429 53.1249 35.4839V33.6458C53.1249 33.1761 52.9383 32.7257 52.6062 32.3936C52.2742 32.0615 51.8237 31.875 51.3541 31.875H37.1874C36.7178 31.875 36.2673 32.0615 35.9352 32.3936C35.6031 32.7257 35.4166 33.1761 35.4166 33.6458V76.1458C35.4166 76.6155 35.6031 77.0659 35.9352 77.398C36.2673 77.7301 36.7178 77.9166 37.1874 77.9166H51.3541C51.8237 77.9166 52.2742 77.7301 52.6062 77.398C52.9383 77.0659 53.1249 76.6155 53.1249 76.1458V56.6666C53.1249 55.2577 53.6846 53.9064 54.6809 52.9101C55.6772 51.9138 57.0284 51.3541 58.4374 51.3541C59.8464 51.3541 61.1976 51.9138 62.1939 52.9101C63.1902 53.9064 63.7499 55.2577 63.7499 56.6666V76.1458C63.7499 76.6155 63.9365 77.0659 64.2686 77.398C64.6007 77.7301 65.0511 77.9166 65.5207 77.9166H79.6874C80.1571 77.9166 80.6075 77.7301 80.9396 77.398C81.2717 77.0659 81.4582 76.6155 81.4582 76.1458V49.5833C81.4526 44.8885 79.5851 40.3876 76.2654 37.0678C72.9456 33.7481 68.4447 31.8806 63.7499 31.875ZM77.9166 74.375H67.2916V56.6666C67.2916 54.3184 66.3587 52.0663 64.6983 50.4058C63.0378 48.7453 60.7857 47.8125 58.4374 47.8125C56.0891 47.8125 53.837 48.7453 52.1766 50.4058C50.5161 52.0663 49.5832 54.3184 49.5832 56.6666V74.375H38.9582V35.4166H49.5832V39.6773C49.5832 40.044 49.697 40.4018 49.9089 40.7011C50.1209 41.0004 50.4206 41.2265 50.7666 41.3482C51.1126 41.4699 51.4878 41.4811 51.8405 41.3804C52.1931 41.2796 52.5058 41.0719 52.7353 40.7858C54.5541 38.4804 57.0469 36.8001 59.8662 35.9791C62.6855 35.1581 65.6907 35.2374 68.4628 36.2059C71.2349 37.1743 73.6357 38.9837 75.3304 41.3818C77.025 43.7798 77.9291 46.6469 77.9166 49.5833V74.375ZM20.7824 7.09038C20.3663 7.06105 19.9487 7.05869 19.5322 7.0833C18.2068 6.99312 16.877 7.17603 15.6252 7.62071C14.3733 8.06539 13.2261 8.76236 12.2546 9.66846C11.2831 10.5746 10.508 11.6705 9.97727 12.8883C9.44656 14.1062 9.17155 15.42 9.16928 16.7485C9.15828 18.0631 9.41746 19.3659 9.93075 20.5762C10.444 21.7865 11.2005 22.8784 12.1532 23.7843C13.1059 24.6902 14.2345 25.3907 15.4691 25.8424C16.7037 26.2941 18.018 26.4874 19.3303 26.4102H19.4295C20.698 26.499 21.9717 26.3371 23.1777 25.9337C24.3837 25.5303 25.4984 24.8934 26.4582 24.0592C27.418 23.225 28.2041 22.2099 28.7717 21.0719C29.3392 19.9339 29.677 18.6953 29.7658 17.4267C29.8547 16.1582 29.6928 14.8846 29.2894 13.6786C28.886 12.4726 28.249 11.3578 27.4149 10.398C26.5807 9.43821 25.5656 8.65209 24.4276 8.08457C23.2896 7.51704 22.051 7.17922 20.7824 7.09038ZM20.6585 22.8791C20.2512 22.9145 19.8403 22.9145 19.4295 22.8685H19.3303C18.4779 22.9326 17.6216 22.8182 16.8159 22.5327C16.0102 22.2472 15.2729 21.7969 14.651 21.2104C14.0292 20.6239 13.5364 19.9142 13.2043 19.1266C12.8721 18.339 12.7078 17.4908 12.7219 16.6361C12.736 15.7814 12.9282 14.9391 13.2861 14.1629C13.6441 13.3866 14.1599 12.6936 14.8008 12.1279C15.4416 11.5623 16.1934 11.1365 17.008 10.8777C17.8227 10.6189 18.6824 10.5328 19.5322 10.625C21.1572 10.4756 22.775 10.9779 24.0296 12.0214C25.2843 13.0648 26.0731 14.5639 26.2224 16.1889C26.3718 17.8139 25.8695 19.4317 24.826 20.6864C23.7826 21.941 22.2835 22.7298 20.6585 22.8791Z" fill="#E0E0E0"/>
</svg>
