<svg width="90" height="90" viewBox="0 0 90 90" fill="none" xmlns="http://www.w3.org/2000/svg">
<path d="M80 15H10C8.67392 15 7.40215 15.5268 6.46447 16.4645C5.52678 17.4021 5 18.6739 5 20V70C5 71.3261 5.52678 72.5978 6.46447 73.5355C7.40215 74.4732 8.67392 75 10 75H80C81.3261 75 82.5979 74.4732 83.5355 73.5355C84.4732 72.5978 85 71.3261 85 70V20C85 18.6739 84.4732 17.4021 83.5355 16.4645C82.5979 15.5268 81.3261 15 80 15ZM76.15 70H14.15L31.65 51.9L28.05 48.425L10 67.1V23.8L41.075 54.725C42.0118 55.6562 43.2791 56.179 44.6 56.179C45.9209 56.179 47.1882 55.6562 48.125 54.725L80 23.025V66.775L61.6 48.375L58.075 51.9L76.15 70ZM13.275 20H75.95L44.6 51.175L13.275 20Z" fill="#E0E0E0"/>
</svg>
