<svg width="90" height="90" viewBox="0 0 90 90" fill="none" xmlns="http://www.w3.org/2000/svg">
<path d="M45 28.8281C41.8015 28.8281 38.6748 29.7766 36.0154 31.5536C33.3559 33.3306 31.2831 35.8563 30.0591 38.8113C28.8351 41.7663 28.5149 45.0179 29.1389 48.155C29.7629 51.292 31.3031 54.1736 33.5648 56.4352C35.8264 58.6969 38.708 60.2371 41.845 60.8611C44.9821 61.4851 48.2337 61.1649 51.1887 59.9409C54.1437 58.7169 56.6694 56.6441 58.4464 53.9846C60.2234 51.3252 61.1719 48.1985 61.1719 45C61.167 40.7124 59.4617 36.6019 56.4299 33.5701C53.3981 30.5383 49.2876 28.833 45 28.8281ZM45 56.9531C42.6359 56.9531 40.3249 56.2521 38.3592 54.9387C36.3935 53.6252 34.8615 51.7584 33.9568 49.5743C33.052 47.3901 32.8153 44.9867 33.2766 42.6681C33.7378 40.3494 34.8762 38.2195 36.5479 36.5479C38.2195 34.8762 40.3494 33.7378 42.6681 33.2766C44.9867 32.8153 47.3901 33.052 49.5743 33.9568C51.7584 34.8615 53.6252 36.3935 54.9387 38.3592C56.2521 40.3249 56.9531 42.6359 56.9531 45C56.9495 48.1691 55.689 51.2073 53.4481 53.4481C51.2073 55.689 48.1691 56.9495 45 56.9531ZM60.4688 10.5469H29.5312C24.4981 10.5526 19.6727 12.5546 16.1136 16.1136C12.5546 19.6727 10.5526 24.4981 10.5469 29.5312V60.4688C10.5526 65.5019 12.5546 70.3274 16.1136 73.8864C19.6727 77.4454 24.4981 79.4474 29.5312 79.4531H60.4688C65.5019 79.4474 70.3274 77.4454 73.8864 73.8864C77.4454 70.3274 79.4474 65.5019 79.4531 60.4688V29.5312C79.4474 24.4981 77.4454 19.6727 73.8864 16.1136C70.3274 12.5546 65.5019 10.5526 60.4688 10.5469ZM75.2344 60.4688C75.23 64.3835 73.6729 68.1366 70.9048 70.9048C68.1366 73.6729 64.3835 75.23 60.4688 75.2344H29.5312C25.6165 75.23 21.8634 73.6729 19.0952 70.9048C16.3271 68.1366 14.77 64.3835 14.7656 60.4688V29.5312C14.77 25.6165 16.3271 21.8634 19.0952 19.0952C21.8634 16.3271 25.6165 14.77 29.5312 14.7656H60.4688C64.3835 14.77 68.1366 16.3271 70.9048 19.0952C73.6729 21.8634 75.23 25.6165 75.2344 29.5312V60.4688ZM66.7969 26.7188C66.7969 27.4141 66.5907 28.0938 66.2044 28.6719C65.8181 29.2501 65.269 29.7007 64.6266 29.9668C63.9842 30.2329 63.2774 30.3025 62.5954 30.1668C61.9134 30.0312 61.287 29.6963 60.7953 29.2047C60.3037 28.713 59.9688 28.0866 59.8332 27.4046C59.6975 26.7227 59.7671 26.0158 60.0332 25.3734C60.2993 24.731 60.7499 24.1819 61.3281 23.7956C61.9062 23.4093 62.5859 23.2031 63.2812 23.2031C64.2133 23.2042 65.1069 23.575 65.7659 24.2341C66.425 24.8931 66.7958 25.7867 66.7969 26.7188Z" fill="#E0E0E0"/>
</svg>
