<svg width="1027" height="182" viewBox="0 0 1027 182" fill="none" xmlns="http://www.w3.org/2000/svg">
<path d="M-2.50909 167.052L-3.09967 167.859L-3.08844 167.867L-2.50909 167.052ZM-24.6701 123.477V122.477H-25.7328L-25.6682 123.538L-24.6701 123.477ZM34.0939 123.477L35.0906 123.395L35.0153 122.477H34.0939V123.477ZM55.0099 136.674L55.5646 137.506L55.5719 137.501L55.5791 137.496L55.0099 136.674ZM51.5239 119.991L51.0141 120.851L51.0261 120.858L51.0383 120.865L51.5239 119.991ZM30.6079 111.027L30.2751 111.97L30.2768 111.971L30.6079 111.027ZM2.47089 99.324L2.00763 100.21L2.01581 100.214L2.47089 99.324ZM-16.4531 82.641L-15.6443 82.0528L-16.4531 82.641ZM-24.1721 54.504L-23.1722 54.5185L-23.1721 54.5112V54.504H-24.1721ZM-15.4571 25.371L-16.263 24.7789L-16.2651 24.7818L-15.4571 25.371ZM8.69592 6.94498L8.32196 6.01753L8.31671 6.01968L8.69592 6.94498ZM94.6009 15.66L93.9813 16.4449L93.9863 16.4488L94.6009 15.66ZM114.77 57.741V58.741H115.807L115.769 57.7043L114.77 57.741ZM55.2589 57.741L54.2595 57.7743L54.2917 58.741H55.2589V57.741ZM37.3309 46.287L38.038 46.9941L38.0566 46.9755L38.0742 46.956L37.3309 46.287ZM41.5639 62.721L41.0398 63.5726L41.0588 63.5843L41.0782 63.5952L41.5639 62.721ZM62.7289 71.934L62.3743 72.869L62.3793 72.8709L62.7289 71.934ZM90.1189 83.886L89.6472 84.7678L89.6556 84.7722L90.1189 83.886ZM109.043 99.822L108.255 100.437L109.043 99.822ZM109.043 154.602L109.89 155.134L109.895 155.126L109.043 154.602ZM85.8859 174.522L85.4565 173.619L85.8859 174.522ZM49.7809 180.743C28.8547 180.743 11.6412 175.884 -1.92969 166.237L-3.08844 167.867C10.8966 177.808 28.5431 182.743 49.7809 182.743V180.743ZM-1.91858 166.245C-15.2565 156.486 -22.5253 142.254 -23.6719 123.416L-25.6682 123.538C-24.4909 142.88 -16.9857 157.698 -3.09961 167.859L-1.91858 166.245ZM-24.6701 124.477H34.0939V122.477H-24.6701V124.477ZM33.0972 123.559C33.5215 128.734 34.889 132.775 37.3292 135.532C39.7983 138.321 43.2499 139.666 47.5399 139.666V137.666C43.6959 137.666 40.8395 136.48 38.8267 134.206C36.7849 131.899 35.4963 128.346 35.0906 123.395L33.0972 123.559ZM47.5399 139.666C50.6763 139.666 53.3718 138.968 55.5646 137.506L54.4552 135.842C52.6641 137.036 50.3796 137.666 47.5399 137.666V139.666ZM55.5791 137.496C58.0475 135.787 59.2469 133.214 59.2469 129.951H57.2469C57.2469 132.664 56.2883 134.573 54.4407 135.852L55.5791 137.496ZM59.2469 129.951C59.2469 125.347 56.7209 121.734 52.0096 119.117L51.0383 120.865C55.2909 123.228 57.2469 126.255 57.2469 129.951H59.2469ZM52.0337 119.131C47.4647 116.423 40.4174 113.409 30.939 110.083L30.2768 111.971C39.7225 115.285 46.6192 118.247 51.0141 120.851L52.0337 119.131ZM30.9407 110.084C19.6785 106.109 10.3438 102.225 2.92603 98.4336L2.01581 100.214C9.53809 104.059 18.9613 107.977 30.2751 111.97L30.9407 110.084ZM2.93414 98.4378C-4.22052 94.6978 -10.4142 89.2443 -15.6443 82.0528L-17.2618 83.2292C-11.868 90.6457 -5.44562 96.3142 2.00763 100.21L2.93414 98.4378ZM-15.6443 82.0528C-20.7985 74.9659 -23.3359 65.8148 -23.1722 54.5185L-25.172 54.4895C-25.3403 66.1012 -22.7317 75.7081 -17.2618 83.2292L-15.6443 82.0528ZM-23.1721 54.504C-23.1721 43.2263 -20.3149 33.7305 -14.6491 25.9602L-16.2651 24.7818C-22.2192 32.9475 -25.1721 42.8736 -25.1721 54.504H-23.1721ZM-14.6512 25.9631C-8.79321 17.9897 -0.895569 11.9566 9.07513 7.87029L8.31671 6.01968C-1.9646 10.2333 -10.1689 16.4843 -16.263 24.7789L-14.6512 25.9631ZM9.06989 7.87243C19.2264 3.77706 30.6339 1.71999 43.3069 1.71999V-0.280006C30.416 -0.280006 18.7495 1.81292 8.32196 6.01755L9.06989 7.87243ZM43.3069 1.71999C64.7388 1.71999 81.5938 6.66531 93.9813 16.4449L95.2206 14.8751C82.376 4.73467 65.035 -0.280006 43.3069 -0.280006V1.71999ZM93.9863 16.4488C106.506 26.2045 113.116 39.9399 113.771 57.7777L115.769 57.7043C115.096 39.3541 108.26 25.0355 95.2156 14.8712L93.9863 16.4488ZM114.77 56.741H55.2589V58.741H114.77V56.741ZM56.2584 57.7077C56.0884 52.609 54.8103 48.721 52.2043 46.3012L50.8434 47.7668C52.8855 49.663 54.0974 52.913 54.2595 57.7743L56.2584 57.7077ZM52.2043 46.3012C49.6861 43.9628 46.6173 42.797 43.0579 42.797V44.797C46.1385 44.797 48.7137 45.7892 50.8434 47.7668L52.2043 46.3012ZM43.0579 42.797C40.4635 42.797 38.2798 43.7378 36.5876 45.618L38.0742 46.956C39.37 45.5162 41.0043 44.797 43.0579 44.797V42.797ZM36.6238 45.5799C34.886 47.3177 34.0899 49.7657 34.0899 52.761H36.0899C36.0899 50.1123 36.7878 48.2443 38.038 46.9941L36.6238 45.5799ZM34.0899 52.761C34.0899 57.1881 36.5201 60.7913 41.0398 63.5726L42.088 61.8693C37.9757 59.3387 36.0899 56.3019 36.0899 52.761H34.0899ZM41.0782 63.5952C45.626 66.1217 52.7366 69.2133 62.3743 72.869L63.0836 70.999C53.4652 67.3507 46.4658 64.3003 42.0496 61.8468L41.0782 63.5952ZM62.3793 72.8709C73.4769 77.0118 82.5622 80.9781 89.6473 84.7678L90.5906 83.0042C83.3996 79.1579 74.225 75.1562 63.0785 70.9971L62.3793 72.8709ZM89.6556 84.7722C96.8272 88.521 103.026 93.7383 108.255 100.437L109.831 99.2067C104.436 92.2937 98.0186 86.887 90.5822 82.9998L89.6556 84.7722ZM108.255 100.437C113.404 107.035 116.011 115.356 116.011 125.469H118.011C118.011 114.998 115.305 106.221 109.831 99.2067L108.255 100.437ZM116.011 125.469C116.011 136.086 113.4 145.614 108.191 154.078L109.895 155.126C115.31 146.326 118.011 136.432 118.011 125.469H116.011ZM108.196 154.071C102.997 162.356 95.4324 168.876 85.4565 173.619L86.3152 175.425C96.5914 170.54 104.465 163.78 109.89 155.133L108.196 154.071ZM85.4565 173.619C75.4933 178.355 63.6117 180.743 49.7809 180.743V182.743C63.8381 182.743 76.0266 180.316 86.3152 175.425L85.4565 173.619ZM236.282 170.04L235.789 170.91L235.794 170.913L236.282 170.04ZM203.414 137.67L202.553 138.178L203.414 137.67ZM236.282 12.423L236.767 13.2977L236.77 13.2957L236.282 12.423ZM327.665 12.423L327.172 13.2932L327.18 13.2976L327.665 12.423ZM360.284 44.544L359.418 45.0446L359.423 45.0524L360.284 44.544ZM360.284 137.67L359.423 137.162L359.418 137.169L360.284 137.67ZM327.416 170.04L326.928 169.167L326.923 169.17L327.416 170.04ZM307.496 119.742L308.255 120.393L308.263 120.384L307.496 119.742ZM307.496 62.472L306.729 63.114L306.737 63.1228L307.496 62.472ZM256.451 62.472L257.21 63.1228L257.218 63.1139L256.451 62.472ZM256.451 119.742L255.684 120.384L255.692 120.393L256.451 119.742ZM282.098 180.743C265.662 180.743 250.559 176.883 236.77 169.167L235.794 170.913C249.893 178.801 265.334 182.743 282.098 182.743V180.743ZM236.775 169.17C223.151 161.455 212.321 150.791 204.275 137.162L202.553 138.178C210.775 152.105 221.857 163.021 235.789 170.91L236.775 169.17ZM204.275 137.162C196.239 123.55 192.213 108.207 192.213 91.107H190.213C190.213 108.535 194.321 124.234 202.553 138.178L204.275 137.162ZM192.213 91.107C192.213 74.0072 196.239 58.6643 204.275 45.0524L202.553 44.0356C194.321 57.9797 190.213 73.6788 190.213 91.107H192.213ZM204.275 45.0524C212.32 31.4253 223.147 20.8459 236.767 13.2976L235.797 11.5483C221.861 19.2721 210.776 30.1067 202.553 44.0356L204.275 45.0524ZM236.77 13.2957C250.559 5.58047 265.662 1.71999 282.098 1.71999V-0.280006C265.334 -0.280006 249.893 3.66151 235.794 11.5503L236.77 13.2957ZM282.098 1.71999C298.534 1.71999 313.552 5.58044 327.172 13.2932L328.158 11.5528C314.222 3.66154 298.862 -0.280006 282.098 -0.280006V1.71999ZM327.18 13.2976C340.798 20.8448 351.54 31.4218 359.418 45.0446L361.15 44.0434C353.092 30.1102 342.088 19.2731 328.15 11.5483L327.18 13.2976ZM359.423 45.0524C367.459 58.6643 371.485 74.0072 371.485 91.107H373.485C373.485 73.6788 369.377 57.9797 361.145 44.0356L359.423 45.0524ZM371.485 91.107C371.485 108.207 367.459 123.55 359.423 137.162L361.145 138.178C369.377 124.234 373.485 108.535 373.485 91.107H371.485ZM359.418 137.169C351.541 150.791 340.715 161.453 326.928 169.167L327.904 170.913C342.005 163.023 353.091 152.105 361.15 138.171L359.418 137.169ZM326.923 169.17C313.301 176.883 298.366 180.743 282.098 180.743V182.743C298.698 182.743 313.975 178.801 327.909 170.91L326.923 169.17ZM282.098 131.2C293.284 131.2 302.052 127.63 308.255 120.393L306.737 119.091C300.988 125.798 292.824 129.2 282.098 129.2V131.2ZM308.263 120.384C314.428 113.02 317.46 103.226 317.46 91.107H315.46C315.46 102.892 312.516 112.188 306.729 119.1L308.263 120.384ZM317.46 91.107C317.46 78.8277 314.43 69.0256 308.255 61.8212L306.737 63.1228C312.513 69.8624 315.46 79.1503 315.46 91.107H317.46ZM308.263 61.8301C302.062 54.4241 293.292 50.765 282.098 50.765V52.765C292.816 52.765 300.978 56.2439 306.729 63.1139L308.263 61.8301ZM282.098 50.765C270.744 50.765 261.888 54.4205 255.684 61.8301L257.218 63.1139C262.966 56.2475 271.208 52.765 282.098 52.765V50.765ZM255.692 61.8212C249.516 69.0256 246.487 78.8277 246.487 91.107H248.487C248.487 79.1503 251.433 69.8624 257.21 63.1228L255.692 61.8212ZM246.487 91.107C246.487 103.226 249.519 113.02 255.684 120.384L257.218 119.1C251.431 112.188 248.487 102.892 248.487 91.107H246.487ZM255.692 120.393C261.898 127.633 270.751 131.2 282.098 131.2V129.2C271.2 129.2 262.956 125.795 257.21 119.091L255.692 120.393ZM570.212 89.613L569.961 88.645L569.984 90.5866L570.212 89.613ZM594.863 105.051L594.061 105.648L594.068 105.658L594.076 105.667L594.863 105.051ZM588.389 167.55L589.023 168.323L589.025 168.322L588.389 167.55ZM452.186 180H451.186V181H452.186V180ZM452.186 3.708V2.708H451.186V3.708H452.186ZM591.626 75.669L590.833 75.0602L590.831 75.0629L591.626 75.669ZM507.464 72.432H506.464V73.432H507.464V72.432ZM539.834 69.444L539.21 68.6631L539.196 68.6737L539.184 68.6847L539.834 69.444ZM539.834 50.769L539.154 51.5018L539.181 51.5268L539.21 51.5499L539.834 50.769ZM507.464 47.532V46.532H506.464V47.532H507.464ZM543.569 132.939L544.187 133.725L544.194 133.72L543.569 132.939ZM507.464 110.778V109.778H506.464V110.778H507.464ZM507.464 135.678H506.464V136.678H507.464V135.678ZM569.984 90.5866C580.408 93.0298 588.409 98.0586 594.061 105.648L595.665 104.454C589.697 96.4393 581.264 91.1762 570.441 88.6394L569.984 90.5866ZM594.076 105.667C599.908 113.119 602.827 121.781 602.827 131.694H604.827C604.827 121.355 601.771 112.255 595.651 104.435L594.076 105.667ZM602.827 131.694C602.827 146.886 597.777 158.533 587.754 166.778L589.025 168.322C599.586 159.635 604.827 147.378 604.827 131.694H602.827ZM587.755 166.777C577.874 174.876 563.527 179 544.565 179V181C563.784 181 578.652 176.824 589.023 168.323L587.755 166.777ZM544.565 179H452.186V181H544.565V179ZM453.186 180V3.708H451.186V180H453.186ZM452.186 4.708H542.075V2.708H452.186V4.708ZM542.075 4.708C559.868 4.708 573.739 8.58028 583.801 16.2079L585.009 14.6141C574.487 6.63772 560.138 2.708 542.075 2.708V4.708ZM583.801 16.2079C593.803 23.7896 598.843 34.8412 598.843 49.524H600.843C600.843 34.3267 595.592 22.6364 585.009 14.6141L583.801 16.2079ZM598.843 49.524C598.843 59.629 596.158 68.1214 590.833 75.0602L592.42 76.2778C598.051 68.9406 600.843 60.003 600.843 49.524H598.843ZM590.831 75.0629C585.663 81.8462 578.722 86.3738 569.961 88.645L570.463 90.581C579.631 88.2042 586.966 83.4358 592.422 76.275L590.831 75.0629ZM507.464 73.432H528.878V71.432H507.464V73.432ZM528.878 73.432C533.957 73.432 537.896 72.4223 540.485 70.2032L539.184 68.6847C537.124 70.4497 533.76 71.432 528.878 71.432V73.432ZM540.459 70.2249C543.254 67.9888 544.569 64.5858 544.569 60.231H542.569C542.569 64.1762 541.395 66.9152 539.21 68.6631L540.459 70.2249ZM544.569 60.231C544.569 55.7257 543.263 52.2314 540.459 49.9881L539.21 51.5499C541.385 53.2905 542.569 56.1043 542.569 60.231H544.569ZM540.515 50.0362C537.925 47.6312 533.973 46.532 528.878 46.532V48.532C533.744 48.532 537.096 49.5908 539.154 51.5018L540.515 50.0362ZM528.878 46.532H507.464V48.532H528.878V46.532ZM506.464 47.532V72.432H508.464V47.532H506.464ZM532.613 136.678C537.678 136.678 541.602 135.757 544.187 133.725L542.952 132.153C540.889 133.773 537.509 134.678 532.613 134.678V136.678ZM544.194 133.72C546.998 131.477 548.304 127.982 548.304 123.477H546.304C546.304 127.604 545.12 130.417 542.945 132.158L544.194 133.72ZM548.304 123.477C548.304 119.049 547.017 115.557 544.286 113.196C541.582 110.859 537.632 109.778 532.613 109.778V111.778C537.389 111.778 540.784 112.813 542.978 114.709C545.143 116.581 546.304 119.439 546.304 123.477H548.304ZM532.613 109.778H507.464V111.778H532.613V109.778ZM506.464 110.778V135.678H508.464V110.778H506.464ZM507.464 136.678H532.613V134.678H507.464V136.678ZM770.805 180L769.919 180.464L770.2 181H770.805V180ZM737.688 116.754L738.574 116.29L738.293 115.754H737.688V116.754ZM737.439 116.754V115.754H736.439V116.754H737.439ZM737.439 180V181H738.439V180H737.439ZM682.161 180H681.161V181H682.161V180ZM682.161 3.708V2.708H681.161V3.708H682.161ZM800.934 11.427L800.481 12.3186L800.493 12.3243L800.934 11.427ZM823.593 32.094L822.723 32.5866L822.729 32.5964L822.734 32.6061L823.593 32.094ZM821.352 92.85L820.543 92.2618L820.536 92.2716L821.352 92.85ZM793.215 112.521L792.907 111.57L791.74 111.948L792.346 113.015L793.215 112.521ZM831.561 180V181H833.28L832.431 179.506L831.561 180ZM737.439 79.902H736.439V80.902H737.439V79.902ZM771.303 76.416L771.962 77.1686L771.975 77.1573L771.987 77.1455L771.303 76.416ZM771.054 54.006L770.347 54.7131L770.358 54.7238L770.369 54.7342L771.054 54.006ZM737.439 50.022V49.022H736.439V50.022H737.439ZM771.691 179.536L738.574 116.29L736.802 117.218L769.919 180.464L771.691 179.536ZM737.688 115.754H737.439V117.754H737.688V115.754ZM736.439 116.754V180H738.439V116.754H736.439ZM737.439 179H682.161V181H737.439V179ZM683.161 180V3.708H681.161V180H683.161ZM682.161 4.708H764.331V2.708H682.161V4.708ZM764.331 4.708C778.489 4.708 790.527 7.25978 800.481 12.3185L801.387 10.5355C791.089 5.30222 778.725 2.708 764.331 2.708V4.708ZM800.493 12.3243C810.46 17.2263 817.853 23.9836 822.723 32.5866L824.464 31.6014C819.373 22.6084 811.66 15.5877 801.375 10.5296L800.493 12.3243ZM822.734 32.6061C827.78 41.0694 830.312 50.6835 830.312 61.476H832.312C832.312 50.3565 829.699 40.3826 824.452 31.5819L822.734 32.6061ZM830.312 61.476C830.312 73.0606 827.053 83.3106 820.543 92.2618L822.161 93.4382C828.931 84.1294 832.312 73.4634 832.312 61.476H830.312ZM820.536 92.2716C814.206 101.2 805.019 107.642 792.907 111.57L793.524 113.472C805.98 109.432 815.551 102.76 822.168 93.4284L820.536 92.2716ZM792.346 113.015L830.692 180.494L832.431 179.506L794.085 112.027L792.346 113.015ZM831.561 179H770.805V181H831.561V179ZM737.439 80.902H759.351V78.902H737.439V80.902ZM759.351 80.902C764.787 80.902 769.051 79.7158 771.962 77.1686L770.645 75.6634C768.244 77.7642 764.539 78.902 759.351 78.902V80.902ZM771.987 77.1455C774.917 74.3992 776.287 70.2677 776.287 64.962H774.287C774.287 69.9483 773.002 73.4528 770.619 75.6865L771.987 77.1455ZM776.287 64.962C776.287 60.0977 774.802 56.16 771.74 53.2778L770.369 54.7342C772.951 57.164 774.287 60.5303 774.287 64.962H776.287ZM771.761 53.2989C768.857 50.3946 764.662 49.022 759.351 49.022V51.022C764.332 51.022 767.939 52.3054 770.347 54.7131L771.761 53.2989ZM759.351 49.022H737.439V51.022H759.351V49.022ZM736.439 50.022V79.902H738.439V50.022H736.439ZM964.01 47.781V46.781H963.01V47.781H964.01ZM964.01 69.444H963.01V70.444H964.01V69.444ZM1018.79 69.444H1019.79V68.444H1018.79V69.444ZM1018.79 111.027V112.027H1019.79V111.027H1018.79ZM964.01 111.027V110.027H963.01V111.027H964.01ZM964.01 135.927H963.01V136.927H964.01V135.927ZM1026.26 135.927H1027.26V134.927H1026.26V135.927ZM1026.26 180V181H1027.26V180H1026.26ZM908.732 180H907.732V181H908.732V180ZM908.732 3.708V2.708H907.732V3.708H908.732ZM1026.26 3.708H1027.26V2.708H1026.26V3.708ZM1026.26 47.781V48.781H1027.26V47.781H1026.26ZM963.01 47.781V69.444H965.01V47.781H963.01ZM964.01 70.444H1018.79V68.444H964.01V70.444ZM1017.79 69.444V111.027H1019.79V69.444H1017.79ZM1018.79 110.027H964.01V112.027H1018.79V110.027ZM963.01 111.027V135.927H965.01V111.027H963.01ZM964.01 136.927H1026.26V134.927H964.01V136.927ZM1025.26 135.927V180H1027.26V135.927H1025.26ZM1026.26 179H908.732V181H1026.26V179ZM909.732 180V3.708H907.732V180H909.732ZM908.732 4.708H1026.26V2.708H908.732V4.708ZM1025.26 3.708V47.781H1027.26V3.708H1025.26ZM1026.26 46.781H964.01V48.781H1026.26V46.781Z" fill="#E0E0E0" fill-opacity="0.4"/>
</svg>
