<svg width="198" height="150" viewBox="0 0 198 150" fill="none" xmlns="http://www.w3.org/2000/svg">
<path fill-rule="evenodd" clip-rule="evenodd" d="M63.3096 0.526673C4.05182 3.18568 0 7.74397 0 69.5342C0.126619 123.601 4.68392 142.34 17.9789 142.34C18.7387 142.34 23.8039 143.86 29.2486 145.632C56.4717 154.749 187.143 144.999 192.587 133.35C196.892 124.234 199.171 49.7816 195.879 29.016C192.46 7.99721 183.977 1.41302 161.566 1.91949C142.32 2.42597 145.232 10.5296 164.731 10.5296C179.292 10.5296 179.419 10.9095 179.672 70.4205C179.925 127.399 180.052 126.006 171.316 128.159C155.362 132.084 63.3094 132.97 23.8042 133.604C20.1322 126.639 19.372 128.919 15.7 73.7126C12.2813 20.7857 12.4082 20.5325 49.5076 15.5944C75.4646 12.1756 80.1495 11.7958 108.386 11.0361C134.596 10.2763 138.774 9.76986 138.774 7.87057C138.648 2.04609 104.081 -1.37262 63.3096 0.526673ZM162.706 21.9253C158.401 25.344 148.523 35.8535 116.109 70.4205C105.346 81.9429 105.727 81.9429 94.711 74.2191C77.8706 62.5701 63.3096 53.7067 51.9139 43.4506C35.7066 28.8894 25.4502 23.1915 21.9049 26.7369C19.7524 28.8894 38.1117 43.9571 62.5492 68.6478L73.1857 79.4104C72.8058 79.7903 51.0271 96.6307 41.2774 109.799C34.6932 118.662 41.6577 120.308 47.4822 116.13C53.5599 111.572 63.689 100.303 78.6301 84.8551L83.9483 87.0076C92.4318 90.4263 108.765 88.1472 114.463 82.8292C118.515 79.0306 122.188 77.7644 122.188 80.0435C122.188 81.6896 148.651 107.773 158.021 115.877C163.339 120.435 179.039 125.5 165.744 110.052C155.994 98.9098 136.749 79.5371 129.785 74.7256C128.139 73.586 126.999 72.4464 127.252 72.1932C145.612 60.291 164.604 40.1585 171.188 28.5095C179.418 14.4548 164.858 20.2793 162.706 21.9253Z" fill="#6F5D87"/>
</svg>
